<svg width="938.25" height="1092"><g id="container" transform="translate(90,60)"><rect id="path-0" x="0" y="0" width="848.25" height="206.4" fill-rule="evenodd" fill="#c6dbef" stroke="#FFF" style="fill: rgb(198, 219, 239);"></rect><rect id="path-1" x="0" y="206.4" width="722.6052897571315" height="206.4" fill-rule="evenodd" fill="#e6550d" stroke="#FFF" style="fill: rgb(230, 85, 13);"></rect><rect id="path-2" x="721.4011861867245" y="412.8" width="1.2041035704070138" height="206.4" fill-rule="evenodd" fill="#fd8d3c" stroke="#FFF"></rect><rect id="path-3" x="721.4011861867245" y="619.1999999999999" width="0.5254106559076838" height="206.4" fill-rule="evenodd" fill="#9e9ac8" stroke="#FFF"></rect><rect id="path-4" x="702.7158981288709" y="412.8" width="11.008516402297523" height="206.4" fill-rule="evenodd" fill="#fdae6b" stroke="#FFF"></rect><rect id="path-5" x="707.1042886262064" y="619.1999999999999" width="4.045191651204586" height="206.4" fill-rule="evenodd" fill="#3182bd" stroke="#FFF"></rect><rect id="path-6" x="707.1042886262064" y="825.6" width="4.045191651204586" height="206.4" fill-rule="evenodd" fill="#6baed6" stroke="#FFF"></rect><rect id="path-7" x="711.149480277411" y="619.1999999999999" width="2.5749342537574345" height="206.4" fill-rule="evenodd" fill="#9ecae1" stroke="#FFF"></rect><rect id="path-8" x="711.149480277411" y="825.6" width="2.5749342537574345" height="206.4" fill-rule="evenodd" fill="#c6dbef" stroke="#FFF"></rect><rect id="path-9" x="702.7158981288709" y="619.1999999999999" width="4.388390497335504" height="206.4" fill-rule="evenodd" fill="#e6550d" stroke="#FFF"></rect><rect id="path-10" x="702.7158981288709" y="825.6" width="2.9164602801074593" height="206.4" fill-rule="evenodd" fill="#6baed6" stroke="#FFF"></rect><rect id="path-11" x="705.6323584089783" y="825.6" width="1.4719302172280446" height="206.4" fill-rule="evenodd" fill="#fd8d3c" stroke="#FFF"></rect><rect id="path-12" x="705.6323584089783" y="1032" width="1.4719302172280446" height="206.4" fill-rule="evenodd" fill="#fd8d3c" stroke="#FFF"></rect><rect id="path-13" x="0" y="412.8" width="702.7158981288709" height="206.4" fill-rule="evenodd" fill="#fdd0a2" stroke="#FFF"></rect><rect id="path-14" x="699.6242438048281" y="619.1999999999999" width="1.3676257630136812" height="206.4" fill-rule="evenodd" fill="#fdae6b" stroke="#FFF"></rect><rect id="path-15" x="433.38962765265177" y="619.1999999999999" width="89.21445450691544" height="206.4" fill-rule="evenodd" fill="#a1d99b" stroke="#FFF"></rect><rect id="path-16" x="512.8630198999547" y="825.6" width="5.027868503760039" height="206.4" fill-rule="evenodd" fill="#fdd0a2" stroke="#FFF"></rect><rect id="path-17" x="517.8908884037147" y="825.6" width="4.713193755852382" height="206.4" fill-rule="evenodd" fill="#31a354" stroke="#FFF"></rect><rect id="path-18" x="473.20889353448223" y="825.6" width="39.65412636547249" height="206.4" fill-rule="evenodd" fill="#74c476" stroke="#FFF"></rect><rect id="path-19" x="504.86660531612597" y="1032" width="7.996414583828792" height="206.4" fill-rule="evenodd" fill="#fdae6b" stroke="#FFF"></rect><rect id="path-20" x="495.87746432612283" y="1032" width="8.989140990003113" height="206.4" fill-rule="evenodd" fill="#a1d99b" stroke="#FFF"></rect><rect id="path-21" x="473.20889353448223" y="1032" width="22.668570791640587" height="206.4" fill-rule="evenodd" fill="#74c476" stroke="#FFF"></rect><rect id="path-22" x="433.38962765265177" y="825.6" width="39.819265881830525" height="206.4" fill-rule="evenodd" fill="#a1d99b" stroke="#FFF"></rect><rect id="path-23" x="0" y="619.1999999999999" width="222.29208711445486" height="206.4" fill-rule="evenodd" fill="#756bb1" stroke="#FFF"></rect><rect id="path-24" x="215.63817749432934" y="825.6" width="6.6539096201255035" height="206.4" fill-rule="evenodd" fill="#c7e9c0" stroke="#FFF"></rect><rect id="path-25" x="208.24319263215193" y="825.6" width="7.394984862177398" height="206.4" fill-rule="evenodd" fill="#fdd0a2" stroke="#FFF"></rect><rect id="path-26" x="139.46421680436274" y="825.6" width="68.77897582778921" height="206.4" fill-rule="evenodd" fill="#9ecae1" stroke="#FFF"></rect><rect id="path-27" x="177.30745308918483" y="1032" width="30.935739542967127" height="206.4" fill-rule="evenodd" fill="#c6dbef" stroke="#FFF"></rect><rect id="path-28" x="139.46421680436274" y="1032" width="37.84323628482208" height="206.4" fill-rule="evenodd" fill="#9ecae1" stroke="#FFF"></rect><rect id="path-29" x="0" y="825.6" width="139.46421680436274" height="206.4" fill-rule="evenodd" fill="#756bb1" stroke="#FFF"></rect><rect id="path-30" x="677.5522045288452" y="619.1999999999999" width="11.758400060500819" height="206.4" fill-rule="evenodd" fill="#fd8d3c" stroke="#FFF"></rect><rect id="path-31" x="684.7405317476706" y="825.6" width="2.57088172775405" height="206.4" fill-rule="evenodd" fill="#c7e9c0" stroke="#FFF"></rect><rect id="path-32" x="684.7405317476706" y="1032" width="2.57088172775405" height="206.4" fill-rule="evenodd" fill="#756bb1" stroke="#FFF"></rect><rect id="path-33" x="688.7359750519171" y="825.6" width="0.5746295374288817" height="206.4" fill-rule="evenodd" fill="#fdae6b" stroke="#FFF"></rect><rect id="path-34" x="677.5522045288452" y="825.6" width="4.508938565916324" height="206.4" fill-rule="evenodd" fill="#9e9ac8" stroke="#FFF"></rect><rect id="path-35" x="679.999487333475" y="1032" width="2.0616557612864597" height="206.4" fill-rule="evenodd" fill="#3182bd" stroke="#FFF"></rect><rect id="path-36" x="677.5522045288452" y="1032" width="2.4472828046298645" height="206.4" fill-rule="evenodd" fill="#756bb1" stroke="#FFF"></rect><rect id="path-37" x="682.0611430947615" y="825.6" width="2.679388652909073" height="206.4" fill-rule="evenodd" fill="#bcbddc" stroke="#FFF"></rect><rect id="path-38" x="682.0611430947615" y="1032" width="2.156913346917559" height="206.4" fill-rule="evenodd" fill="#756bb1" stroke="#FFF"></rect><rect id="path-39" x="684.2180564416791" y="1032" width="0.5224753059915143" height="206.4" fill-rule="evenodd" fill="#bcbddc" stroke="#FFF"></rect><rect id="path-40" x="687.3114134754246" y="825.6" width="1.4245615764924884" height="206.4" fill-rule="evenodd" fill="#fd8d3c" stroke="#FFF"></rect><rect id="path-41" x="693.9342311498856" y="619.1999999999999" width="3.5498465075652046" height="206.4" fill-rule="evenodd" fill="#dadaeb" stroke="#FFF"></rect><rect id="path-42" x="693.9342311498856" y="825.6" width="2.0020833879366804" height="206.4" fill-rule="evenodd" fill="#636363" stroke="#FFF"></rect><rect id="path-43" x="695.407891410267" y="1032" width="0.5284231275552571" height="206.4" fill-rule="evenodd" fill="#9ecae1" stroke="#FFF"></rect><rect id="path-44" x="693.9342311498856" y="1032" width="1.4736602603814235" height="206.4" fill-rule="evenodd" fill="#636363" stroke="#FFF"></rect><rect id="path-45" x="695.9363145378222" y="825.6" width="1.5477631196285235" height="206.4" fill-rule="evenodd" fill="#dadaeb" stroke="#FFF"></rect><rect id="path-46" x="689.310604589346" y="619.1999999999999" width="4.623626560539551" height="206.4" fill-rule="evenodd" fill="#9e9ac8" stroke="#FFF"></rect><rect id="path-47" x="691.8201357375794" y="825.6" width="2.1140954123060367" height="206.4" fill-rule="evenodd" fill="#3182bd" stroke="#FFF"></rect><rect id="path-48" x="691.8201357375794" y="1032" width="2.1140954123060367" height="206.4" fill-rule="evenodd" fill="#6baed6" stroke="#FFF"></rect><rect id="path-49" x="689.310604589346" y="825.6" width="2.5095311482335134" height="206.4" fill-rule="evenodd" fill="#756bb1" stroke="#FFF"></rect><rect id="path-50" x="689.310604589346" y="1032" width="2.498869955305034" height="206.4" fill-rule="evenodd" fill="#9ecae1" stroke="#FFF"></rect><rect id="path-51" x="522.6040821595672" y="619.1999999999999" width="54.0401573688826" height="206.4" fill-rule="evenodd" fill="#c7e9c0" stroke="#FFF"></rect><rect id="path-52" x="522.6040821595672" y="825.6" width="33.8837831322338" height="206.4" fill-rule="evenodd" fill="#756bb1" stroke="#FFF"></rect><rect id="path-53" x="541.5539582856036" y="1032" width="14.870463576184115" height="206.4" fill-rule="evenodd" fill="#9ecae1" stroke="#FFF"></rect><rect id="path-54" x="522.6040821595672" y="1032" width="18.949876126036436" height="206.4" fill-rule="evenodd" fill="#756bb1" stroke="#FFF"></rect><rect id="path-55" x="556.487865291801" y="825.6" width="20.1563742366488" height="206.4" fill-rule="evenodd" fill="#c7e9c0" stroke="#FFF"></rect><rect id="path-56" x="630.3137659771447" y="619.1999999999999" width="24.512722023467067" height="206.4" fill-rule="evenodd" fill="#969696" stroke="#FFF"></rect><rect id="path-57" x="630.3137659771447" y="825.6" width="23.951037744735743" height="206.4" fill-rule="evenodd" fill="#bdbdbd" stroke="#FFF"></rect><rect id="path-58" x="653.5807342676787" y="1032" width="0.6840694542017471" height="206.4" fill-rule="evenodd" fill="#d9d9d9" stroke="#FFF"></rect><rect id="path-59" x="630.3137659771447" y="1032" width="22.238788202881675" height="206.4" fill-rule="evenodd" fill="#3182bd" stroke="#FFF"></rect><rect id="path-60" x="652.5525541800264" y="1032" width="1.0281800876523175" height="206.4" fill-rule="evenodd" fill="#bdbdbd" stroke="#FFF"></rect><rect id="path-61" x="654.2648037218805" y="825.6" width="0.5616842787313245" height="206.4" fill-rule="evenodd" fill="#969696" stroke="#FFF"></rect><rect id="path-62" x="700.9918695678418" y="619.1999999999999" width="0.8693149399242742" height="206.4" fill-rule="evenodd" fill="#6baed6" stroke="#FFF"></rect><rect id="path-63" x="700.9918695678418" y="825.6" width="0.5620108257975688" height="206.4" fill-rule="evenodd" fill="#6baed6" stroke="#FFF"></rect><rect id="path-64" x="697.4840776574508" y="619.1999999999999" width="2.140166147377295" height="206.4" fill-rule="evenodd" fill="#9ecae1" stroke="#FFF"></rect><rect id="path-65" x="698.5836316038681" y="825.6" width="1.0406122009600638" height="206.4" fill-rule="evenodd" fill="#3182bd" stroke="#FFF"></rect><rect id="path-66" x="698.5836316038681" y="1032" width="1.0406122009600638" height="206.4" fill-rule="evenodd" fill="#6baed6" stroke="#FFF"></rect><rect id="path-67" x="697.4840776574508" y="825.6" width="1.0995539464172313" height="206.4" fill-rule="evenodd" fill="#9ecae1" stroke="#FFF"></rect><rect id="path-68" x="701.8611845077661" y="619.1999999999999" width="0.8547136211050471" height="206.4" fill-rule="evenodd" fill="#9ecae1" stroke="#FFF"></rect><rect id="path-69" x="701.8611845077661" y="825.6" width="0.8547136211050471" height="206.4" fill-rule="evenodd" fill="#c6dbef" stroke="#FFF"></rect><rect id="path-70" x="654.8264880006118" y="619.1999999999999" width="22.72571652823341" height="206.4" fill-rule="evenodd" fill="#c6dbef" stroke="#FFF"></rect><rect id="path-71" x="654.8264880006118" y="825.6" width="22.72571652823341" height="206.4" fill-rule="evenodd" fill="#e6550d" stroke="#FFF"></rect><rect id="path-72" x="654.8264880006118" y="1032" width="20.156770758086385" height="206.4" fill-rule="evenodd" fill="#fd8d3c" stroke="#FFF"></rect><rect id="path-73" x="676.3117688481339" y="1032" width="0.8609180153636964" height="206.4" fill-rule="evenodd" fill="#fdae6b" stroke="#FFF"></rect><rect id="path-74" x="674.9832587586982" y="1032" width="1.328510089435654" height="206.4" fill-rule="evenodd" fill="#e6550d" stroke="#FFF"></rect><rect id="path-75" x="222.29208711445486" y="619.1999999999999" width="211.09754053819682" height="206.4" fill-rule="evenodd" fill="#fdae6b" stroke="#FFF"></rect><rect id="path-76" x="362.22744136103734" y="825.6" width="43.4832639138387" height="206.4" fill-rule="evenodd" fill="#3182bd" stroke="#FFF"></rect><rect id="path-77" x="396.4189951032068" y="1032" width="9.291710171669273" height="206.4" fill-rule="evenodd" fill="#6baed6" stroke="#FFF"></rect><rect id="path-78" x="362.22744136103734" y="1032" width="34.191553742169425" height="206.4" fill-rule="evenodd" fill="#3182bd" stroke="#FFF"></rect><rect id="path-79" x="405.71070527487603" y="825.6" width="27.678922377775645" height="206.4" fill-rule="evenodd" fill="#9ecae1" stroke="#FFF"></rect><rect id="path-80" x="405.71070527487603" y="1032" width="27.678922377775645" height="206.4" fill-rule="evenodd" fill="#c6dbef" stroke="#FFF"></rect><rect id="path-81" x="315.05074352964755" y="825.6" width="47.17669783138979" height="206.4" fill-rule="evenodd" fill="#e6550d" stroke="#FFF"></rect><rect id="path-82" x="348.1285385280181" y="1032" width="9.36907850157882" height="206.4" fill-rule="evenodd" fill="#6baed6" stroke="#FFF"></rect><rect id="path-83" x="357.49761702959694" y="1032" width="4.7298243314404145" height="206.4" fill-rule="evenodd" fill="#fd8d3c" stroke="#FFF"></rect><rect id="path-84" x="315.05074352964755" y="1032" width="33.07779499837055" height="206.4" fill-rule="evenodd" fill="#e6550d" stroke="#FFF"></rect><rect id="path-85" x="222.29208711445486" y="825.6" width="92.75865641519266" height="206.4" fill-rule="evenodd" fill="#fdae6b" stroke="#FFF"></rect><rect id="path-86" x="576.6442395284497" y="619.1999999999999" width="53.66952644869499" height="206.4" fill-rule="evenodd" fill="#fdd0a2" stroke="#FFF"></rect><rect id="path-87" x="713.7244145311685" y="412.8" width="4.250943058792567" height="206.4" fill-rule="evenodd" fill="#31a354" stroke="#FFF"></rect><rect id="path-88" x="713.7244145311685" y="619.1999999999999" width="4.200164989991516" height="206.4" fill-rule="evenodd" fill="#a1d99b" stroke="#FFF"></rect><rect id="path-89" x="713.7244145311685" y="825.6" width="3.371864303082632" height="206.4" fill-rule="evenodd" fill="#74c476" stroke="#FFF"></rect><rect id="path-90" x="715.5088815442031" y="1032" width="1.5873972900480702" height="206.4" fill-rule="evenodd" fill="#fdae6b" stroke="#FFF"></rect><rect id="path-91" x="713.7244145311685" y="1032" width="1.7844670130345617" height="206.4" fill-rule="evenodd" fill="#a1d99b" stroke="#FFF"></rect><rect id="path-92" x="717.975357589961" y="412.8" width="3.4258285967635067" height="206.4" fill-rule="evenodd" fill="#e6550d" stroke="#FFF" style="fill: rgb(230, 85, 13);"></rect><rect id="path-93" x="837.8553776411211" y="206.4" width="10.345057179181039" height="206.4" fill-rule="evenodd" fill="#74c476" stroke="#FFF"></rect><rect id="path-94" x="847.4252354098277" y="412.8" width="0.6405220704389722" height="206.4" fill-rule="evenodd" fill="#3182bd" stroke="#FFF"></rect><rect id="path-95" x="847.4252354098277" y="619.1999999999999" width="0.6405220704389722" height="206.4" fill-rule="evenodd" fill="#6baed6" stroke="#FFF"></rect><rect id="path-96" x="845.5599052682761" y="412.8" width="1.1500287929424826" height="206.4" fill-rule="evenodd" fill="#a1d99b" stroke="#FFF"></rect><rect id="path-97" x="845.5599052682761" y="619.1999999999999" width="0.9232354071042808" height="206.4" fill-rule="evenodd" fill="#74c476" stroke="#FFF"></rect><rect id="path-98" x="846.7099340612186" y="412.8" width="0.7153013486090077" height="206.4" fill-rule="evenodd" fill="#c7e9c0" stroke="#FFF"></rect><rect id="path-99" x="846.7099340612186" y="619.1999999999999" width="0.7153013486090077" height="206.4" fill-rule="evenodd" fill="#756bb1" stroke="#FFF"></rect><rect id="path-100" x="846.7099340612186" y="825.6" width="0.7122625476421858" height="206.4" fill-rule="evenodd" fill="#9ecae1" stroke="#FFF"></rect><rect id="path-101" x="846.7099340612186" y="1032" width="0.7122625476421858" height="206.4" fill-rule="evenodd" fill="#c6dbef" stroke="#FFF"></rect><rect id="path-102" x="841.0891600877505" y="412.8" width="3.0605749997383067" height="206.4" fill-rule="evenodd" fill="#fdae6b" stroke="#FFF"></rect><rect id="path-103" x="842.3090431861115" y="619.1999999999999" width="1.1247446980291553" height="206.4" fill-rule="evenodd" fill="#3182bd" stroke="#FFF"></rect><rect id="path-104" x="842.3090431861115" y="825.6" width="1.1247446980291553" height="206.4" fill-rule="evenodd" fill="#6baed6" stroke="#FFF"></rect><rect id="path-105" x="843.4337878841407" y="619.1999999999999" width="0.7159472033481812" height="206.4" fill-rule="evenodd" fill="#9ecae1" stroke="#FFF"></rect><rect id="path-106" x="843.4337878841407" y="825.6" width="0.7159472033481812" height="206.4" fill-rule="evenodd" fill="#c6dbef" stroke="#FFF"></rect><rect id="path-107" x="841.0891600877505" y="619.1999999999999" width="1.2198830983609699" height="206.4" fill-rule="evenodd" fill="#e6550d" stroke="#FFF"></rect><rect id="path-108" x="841.0891600877505" y="825.6" width="0.8109067554529049" height="206.4" fill-rule="evenodd" fill="#6baed6" stroke="#FFF"></rect><rect id="path-109" x="837.8553776411211" y="412.8" width="3.233782446629502" height="206.4" fill-rule="evenodd" fill="#756bb1" stroke="#FFF"></rect><rect id="path-110" x="837.8553776411211" y="619.1999999999999" width="2.685282669907781" height="206.4" fill-rule="evenodd" fill="#9ecae1" stroke="#FFF"></rect><rect id="path-111" x="837.8553776411211" y="825.6" width="2.685282669907781" height="206.4" fill-rule="evenodd" fill="#c6dbef" stroke="#FFF"></rect><rect id="path-112" x="844.1497350874888" y="412.8" width="1.410170180787276" height="206.4" fill-rule="evenodd" fill="#74c476" stroke="#FFF"></rect><rect id="path-113" x="722.6052897571315" y="206.4" width="115.25008788398966" height="206.4" fill-rule="evenodd" fill="#9e9ac8" stroke="#FFF" style="fill: rgb(158, 154, 200);"></rect><rect id="path-114" x="722.6052897571315" y="412.8" width="81.44691324084971" height="206.4" fill-rule="evenodd" fill="#bcbddc" stroke="#FFF"></rect><rect id="path-115" x="722.6052897571315" y="619.1999999999999" width="81.44070884659106" height="206.4" fill-rule="evenodd" fill="#fdd0a2" stroke="#FFF"></rect><rect id="path-116" x="796.3535993385675" y="825.6" width="7.320368857540482" height="206.4" fill-rule="evenodd" fill="#31a354" stroke="#FFF"></rect><rect id="path-117" x="796.3535993385675" y="1032" width="7.114271009159188" height="206.4" fill-rule="evenodd" fill="#fdd0a2" stroke="#FFF"></rect><rect id="path-118" x="722.6052897571315" y="825.6" width="73.74830958143609" height="206.4" fill-rule="evenodd" fill="#74c476" stroke="#FFF"></rect><rect id="path-119" x="788.0943124182714" y="1032" width="4.561069773024694" height="206.4" fill-rule="evenodd" fill="#a1d99b" stroke="#FFF"></rect><rect id="path-120" x="783.5139968369734" y="1032" width="4.580315581297965" height="206.4" fill-rule="evenodd" fill="#c7e9c0" stroke="#FFF"></rect><rect id="path-121" x="794.33592483552" y="1032" width="1.3873192464243749" height="206.4" fill-rule="evenodd" fill="#756bb1" stroke="#FFF"></rect><rect id="path-122" x="792.6553821912961" y="1032" width="1.6805426442239035" height="206.4" fill-rule="evenodd" fill="#756bb1" stroke="#FFF"></rect><rect id="path-123" x="795.7232440819444" y="1032" width="0.6303552566232071" height="206.4" fill-rule="evenodd" fill="#9ecae1" stroke="#FFF"></rect><rect id="path-124" x="722.6052897571315" y="1032" width="28.147751757107823" height="206.4" fill-rule="evenodd" fill="#9e9ac8" stroke="#FFF"></rect><rect id="path-125" x="750.7530415142393" y="1032" width="28.135597211986887" height="206.4" fill-rule="evenodd" fill="#bcbddc" stroke="#FFF"></rect><rect id="path-126" x="778.8886387262262" y="1032" width="4.6253581107472295" height="206.4" fill-rule="evenodd" fill="#dadaeb" stroke="#FFF"></rect><rect id="path-127" x="804.0522029979811" y="412.8" width="25.34912767075967" height="206.4" fill-rule="evenodd" fill="#dadaeb" stroke="#FFF"></rect><rect id="path-128" x="804.0522029979811" y="619.1999999999999" width="25.316449639344757" height="206.4" fill-rule="evenodd" fill="#636363" stroke="#FFF"></rect><rect id="path-129" x="828.6915106458866" y="825.6" width="0.5295893670775595" height="206.4" fill-rule="evenodd" fill="#c6dbef" stroke="#FFF"></rect><rect id="path-130" x="828.6915106458866" y="1032" width="0.5247144858743351" height="206.4" fill-rule="evenodd" fill="#fdd0a2" stroke="#FFF"></rect><rect id="path-131" x="804.0522029979811" y="825.6" width="24.63930764790549" height="206.4" fill-rule="evenodd" fill="#74c476" stroke="#FFF"></rect><rect id="path-132" x="825.9320831751216" y="1032" width="1.5238532514026137" height="206.4" fill-rule="evenodd" fill="#a1d99b" stroke="#FFF"></rect><rect id="path-133" x="824.401799899849" y="1032" width="1.5302832752725721" height="206.4" fill-rule="evenodd" fill="#c7e9c0" stroke="#FFF"></rect><rect id="path-134" x="827.4559364265243" y="1032" width="0.5614692385692378" height="206.4" fill-rule="evenodd" fill="#756bb1" stroke="#FFF"></rect><rect id="path-135" x="804.0522029979811" y="1032" width="9.404162876091604" height="206.4" fill-rule="evenodd" fill="#9e9ac8" stroke="#FFF"></rect><rect id="path-136" x="813.4563658740727" y="1032" width="9.40010204299245" height="206.4" fill-rule="evenodd" fill="#bcbddc" stroke="#FFF"></rect><rect id="path-137" x="822.8564679170652" y="1032" width="1.5453319827838237" height="206.4" fill-rule="evenodd" fill="#dadaeb" stroke="#FFF"></rect><rect id="path-138" x="829.4013306687408" y="412.8" width="8.318973110907212" height="206.4" fill-rule="evenodd" fill="#636363" stroke="#FFF"></rect><rect id="path-139" x="829.4013306687408" y="619.1999999999999" width="7.918673057272106" height="206.4" fill-rule="evenodd" fill="#969696" stroke="#FFF"></rect><rect id="path-140" x="829.4013306687408" y="825.6" width="3.268526209995398" height="206.4" fill-rule="evenodd" fill="#bdbdbd" stroke="#FFF"></rect><rect id="path-141" x="829.4013306687408" y="1032" width="1.9522383107534724" height="206.4" fill-rule="evenodd" fill="#d9d9d9" stroke="#FFF"></rect><rect id="path-142" x="831.3535689794943" y="1032" width="1.1091637600810043" height="206.4" fill-rule="evenodd" fill="#bdbdbd" stroke="#FFF"></rect><rect id="path-143" x="832.6698568787361" y="825.6" width="1.7643804485009877" height="206.4" fill-rule="evenodd" fill="#3182bd" stroke="#FFF"></rect><rect id="path-144" x="832.6698568787361" y="1032" width="0.7551867402717531" height="206.4" fill-rule="evenodd" fill="#3182bd" stroke="#FFF"></rect><rect id="path-145" x="834.4342373272372" y="825.6" width="1.5040291375421802" height="206.4" fill-rule="evenodd" fill="#6baed6" stroke="#FFF"></rect><rect id="path-146" x="834.4342373272372" y="1032" width="0.8384329173737043" height="206.4" fill-rule="evenodd" fill="#6baed6" stroke="#FFF"></rect><rect id="path-147" x="835.9382664647793" y="825.6" width="1.3287200125496694" height="206.4" fill-rule="evenodd" fill="#969696" stroke="#FFF"></rect><text x="424.125" y="103.2" width="848.25" height="206.4" font-family="sans-serif" font-size="15px" fill="black" text-anchor="middle" pointer-events="none"><tspan text-anchor="middle" x="424.125">fluid_multirouter.py:89(_processFlpaList)</tspan><tspan text-anchor="middle" x="424.125" dy="1.2em">36.5 s</tspan></text><text x="361.30264487856573" y="309.59999999999997" width="722.6052897571315" height="206.4" font-family="sans-serif" font-size="15px" fill="black" text-anchor="middle" pointer-events="none"><tspan text-anchor="middle" x="361.30264487856573">lpa_star.py:210(computeShortestPath)</tspan><tspan text-anchor="middle" x="361.30264487856573" dy="1.2em">31.1 s</tspan></text><text x="351.35794906443545" y="516" width="702.7158981288709" height="206.4" font-family="sans-serif" font-size="15px" fill="black" text-anchor="middle" pointer-events="none"><tspan text-anchor="middle" x="351.35794906443545">lpa_star.py:178(_updateVertex)</tspan><tspan text-anchor="middle" x="351.35794906443545" dy="1.2em">30.5 s</tspan></text><text x="111.14604355722743" y="722.4" width="222.29208711445486" height="206.4" font-family="sans-serif" font-size="15px" fill="black" text-anchor="middle" pointer-events="none"><tspan text-anchor="middle" x="111.14604355722743">lpa_fluid_router.py:60(_c)</tspan><tspan text-anchor="middle" x="111.14604355722743" dy="1.2em">9.76 s</tspan></text></g></svg>