<svg width="818.25" height="1092"><g id="container" transform="translate(90,60)"><rect id="path-0" x="0" y="0" width="728.25" height="206.4" fill-rule="evenodd" fill="#c6dbef" stroke="#FFF"></rect><rect id="path-1" x="0" y="206.4" width="489.83366643863775" height="206.4" fill-rule="evenodd" fill="#e6550d" stroke="#FFF"></rect><rect id="path-2" x="480.28791939051666" y="412.8" width="7.830184730514884" height="206.4" fill-rule="evenodd" fill="#fd8d3c" stroke="#FFF"></rect><rect id="path-3" x="480.28791939051666" y="619.1999999999999" width="7.800138813520777" height="206.4" fill-rule="evenodd" fill="#c7e9c0" stroke="#FFF"></rect><rect id="path-4" x="480.28791939051666" y="825.6" width="7.394364178519819" height="206.4" fill-rule="evenodd" fill="#636363" stroke="#FFF" style="fill: rgb(99, 99, 99);"></rect><rect id="path-5" x="483.37249688452397" y="1032" width="2.2785599768509175" height="206.4" fill-rule="evenodd" fill="#969696" stroke="#FFF"></rect><rect id="path-6" x="480.28791939051666" y="1032" width="3.084577494007356" height="206.4" fill-rule="evenodd" fill="#bdbdbd" stroke="#FFF"></rect><rect id="path-7" x="485.6510568613749" y="1032" width="1.6718780877994364" height="206.4" fill-rule="evenodd" fill="#d9d9d9" stroke="#FFF"></rect><rect id="path-8" x="488.9984313052425" y="412.8" width="0.8352351333952813" height="206.4" fill-rule="evenodd" fill="#fdae6b" stroke="#FFF"></rect><rect id="path-9" x="0" y="412.8" width="480.28791939051666" height="206.4" fill-rule="evenodd" fill="#fdd0a2" stroke="#FFF"></rect><rect id="path-10" x="427.825138420715" y="619.1999999999999" width="29.53805293067109" height="206.4" fill-rule="evenodd" fill="#a1d99b" stroke="#FFF"></rect><rect id="path-11" x="427.825138420715" y="825.6" width="18.940404840118337" height="206.4" fill-rule="evenodd" fill="#3182bd" stroke="#FFF"></rect><rect id="path-12" x="445.83678321362856" y="1032" width="0.9287600472047471" height="206.4" fill-rule="evenodd" fill="#969696" stroke="#FFF"></rect><rect id="path-13" x="437.75463833741856" y="1032" width="8.082144876210052" height="206.4" fill-rule="evenodd" fill="#d9d9d9" stroke="#FFF"></rect><rect id="path-14" x="427.825138420715" y="1032" width="9.92949991670354" height="206.4" fill-rule="evenodd" fill="#3182bd" stroke="#FFF"></rect><rect id="path-15" x="446.76554326083334" y="825.6" width="10.59764809055275" height="206.4" fill-rule="evenodd" fill="#a1d99b" stroke="#FFF"></rect><rect id="path-16" x="477.05981772972876" y="619.1999999999999" width="1.1210902833994787" height="206.4" fill-rule="evenodd" fill="#6baed6" stroke="#FFF"></rect><rect id="path-17" x="477.05981772972876" y="825.6" width="0.6009932140077522" height="206.4" fill-rule="evenodd" fill="#969696" stroke="#FFF"></rect><rect id="path-18" x="477.05981772972876" y="1032" width="0.6009932140077522" height="206.4" fill-rule="evenodd" fill="#9ecae1" stroke="#FFF"></rect><rect id="path-19" x="477.6608109437365" y="825.6" width="0.5200970693917265" height="206.4" fill-rule="evenodd" fill="#6baed6" stroke="#FFF"></rect><rect id="path-20" x="474.5274963605906" y="619.1999999999999" width="2.532321369138139" height="206.4" fill-rule="evenodd" fill="#c6dbef" stroke="#FFF"></rect><rect id="path-21" x="476.04816595992634" y="825.6" width="1.0116517698024179" height="206.4" fill-rule="evenodd" fill="#969696" stroke="#FFF"></rect><rect id="path-22" x="476.04816595992634" y="1032" width="1.0116517698024179" height="206.4" fill-rule="evenodd" fill="#9ecae1" stroke="#FFF"></rect><rect id="path-23" x="474.5274963605906" y="825.6" width="1.520669599335721" height="206.4" fill-rule="evenodd" fill="#3182bd" stroke="#FFF"></rect><rect id="path-24" x="474.5274963605906" y="1032" width="1.3639331582273575" height="206.4" fill-rule="evenodd" fill="#d9d9d9" stroke="#FFF"></rect><rect id="path-25" x="308.50438048070555" y="619.1999999999999" width="119.32075794000949" height="206.4" fill-rule="evenodd" fill="#74c476" stroke="#FFF"></rect><rect id="path-26" x="423.75412881136975" y="825.6" width="3.815499872837726" height="206.4" fill-rule="evenodd" fill="#e6550d" stroke="#FFF"></rect><rect id="path-27" x="418.3185739163478" y="825.6" width="5.435554895022065" height="206.4" fill-rule="evenodd" fill="#fd8d3c" stroke="#FFF"></rect><rect id="path-28" x="380.1400540162119" y="825.6" width="38.1785199001359" height="206.4" fill-rule="evenodd" fill="#d9d9d9" stroke="#FFF"></rect><rect id="path-29" x="399.33083436707864" y="1032" width="18.98773954926913" height="206.4" fill-rule="evenodd" fill="#fdae6b" stroke="#FFF"></rect><rect id="path-30" x="380.1400540162119" y="1032" width="19.19078035086677" height="206.4" fill-rule="evenodd" fill="#d9d9d9" stroke="#FFF"></rect><rect id="path-31" x="308.50438048070555" y="825.6" width="71.63567353550631" height="206.4" fill-rule="evenodd" fill="#74c476" stroke="#FFF"></rect><rect id="path-32" x="457.36319135138604" y="619.1999999999999" width="7.584691881676468" height="206.4" fill-rule="evenodd" fill="#fdae6b" stroke="#FFF"></rect><rect id="path-33" x="462.49032902654056" y="825.6" width="1.5160726888253648" height="206.4" fill-rule="evenodd" fill="#a1d99b" stroke="#FFF"></rect><rect id="path-34" x="462.49032902654056" y="1032" width="1.5160726888253648" height="206.4" fill-rule="evenodd" fill="#3182bd" stroke="#FFF"></rect><rect id="path-35" x="460.29607146559397" y="825.6" width="2.1942575609466064" height="206.4" fill-rule="evenodd" fill="#fdd0a2" stroke="#FFF"></rect><rect id="path-36" x="460.29607146559397" y="1032" width="1.8992998565237604" height="206.4" fill-rule="evenodd" fill="#74c476" stroke="#FFF"></rect><rect id="path-37" x="457.36319135138604" y="825.6" width="2.932880114207882" height="206.4" fill-rule="evenodd" fill="#c6dbef" stroke="#FFF"></rect><rect id="path-38" x="459.12439815654375" y="1032" width="1.1716733090502416" height="206.4" fill-rule="evenodd" fill="#969696" stroke="#FFF"></rect><rect id="path-39" x="457.36319135138604" y="1032" width="1.7612068051576408" height="206.4" fill-rule="evenodd" fill="#3182bd" stroke="#FFF"></rect><rect id="path-40" x="464.00640171536594" y="825.6" width="0.647119240844436" height="206.4" fill-rule="evenodd" fill="#fdae6b" stroke="#FFF"></rect><rect id="path-41" x="478.1809080131282" y="619.1999999999999" width="0.9340654138224316" height="206.4" fill-rule="evenodd" fill="#31a354" stroke="#FFF"></rect><rect id="path-42" x="478.1809080131282" y="825.6" width="0.6226247054523036" height="206.4" fill-rule="evenodd" fill="#31a354" stroke="#FFF"></rect><rect id="path-43" x="470.75549835475715" y="619.1999999999999" width="3.771998005833444" height="206.4" fill-rule="evenodd" fill="#74c476" stroke="#FFF"></rect><rect id="path-44" x="472.9465042393897" y="825.6" width="1.2399903949361364" height="206.4" fill-rule="evenodd" fill="#a1d99b" stroke="#FFF"></rect><rect id="path-45" x="470.75549835475715" y="825.6" width="2.191005884632541" height="206.4" fill-rule="evenodd" fill="#74c476" stroke="#FFF"></rect><rect id="path-46" x="479.11497342695066" y="619.1999999999999" width="0.6904357052518624" height="206.4" fill-rule="evenodd" fill="#c7e9c0" stroke="#FFF"></rect><rect id="path-47" x="169.49911507440558" y="619.1999999999999" width="139.00526540629997" height="206.4" fill-rule="evenodd" fill="#756bb1" stroke="#FFF"></rect><rect id="path-48" x="169.49911507440558" y="825.6" width="138.41263313632345" height="206.4" fill-rule="evenodd" fill="#9e9ac8" stroke="#FFF"></rect><rect id="path-49" x="243.35331608387364" y="1032" width="64.55843212685537" height="206.4" fill-rule="evenodd" fill="#bcbddc" stroke="#FFF"></rect><rect id="path-50" x="169.49911507440558" y="1032" width="73.8542010094681" height="206.4" fill-rule="evenodd" fill="#9e9ac8" stroke="#FFF"></rect><rect id="path-51" x="0" y="619.1999999999999" width="169.49911507440558" height="206.4" fill-rule="evenodd" fill="#c7e9c0" stroke="#FFF"></rect><rect id="path-52" x="161.73364139905772" y="825.6" width="4.632052129165354" height="206.4" fill-rule="evenodd" fill="#fd8d3c" stroke="#FFF"></rect><rect id="path-53" x="166.36569352822306" y="825.6" width="3.1334215461825385" height="206.4" fill-rule="evenodd" fill="#dadaeb" stroke="#FFF"></rect><rect id="path-54" x="0" y="825.6" width="141.5505221720033" height="206.4" fill-rule="evenodd" fill="#636363" stroke="#FFF" style="fill: rgb(99, 99, 99);"></rect><rect id="path-55" x="98.5692941831665" y="1032" width="22.723933461302316" height="206.4" fill-rule="evenodd" fill="#969696" stroke="#FFF"></rect><rect id="path-56" x="67.80699938198826" y="1032" width="30.762294801178246" height="206.4" fill-rule="evenodd" fill="#bdbdbd" stroke="#FFF"></rect><rect id="path-57" x="137.96676128349554" y="1032" width="3.5837608885077334" height="206.4" fill-rule="evenodd" fill="#636363" stroke="#FFF"></rect><rect id="path-58" x="121.29322764446883" y="1032" width="16.67353363902673" height="206.4" fill-rule="evenodd" fill="#d9d9d9" stroke="#FFF"></rect><rect id="path-59" x="0" y="1032" width="67.80699938198826" height="206.4" fill-rule="evenodd" fill="#636363" stroke="#FFF" style="fill: rgb(99, 99, 99);"></rect><rect id="path-60" x="141.5505221720033" y="825.6" width="20.183119227054405" height="206.4" fill-rule="evenodd" fill="#c7e9c0" stroke="#FFF"></rect><rect id="path-61" x="464.94788323306256" y="619.1999999999999" width="5.807615121694587" height="206.4" fill-rule="evenodd" fill="#fdd0a2" stroke="#FFF"></rect><rect id="path-62" x="488.11810412103154" y="412.8" width="0.8803271842110301" height="206.4" fill-rule="evenodd" fill="#e6550d" stroke="#FFF"></rect><rect id="path-63" x="716.4701507079111" y="206.4" width="11.518417368785869" height="206.4" fill-rule="evenodd" fill="#31a354" stroke="#FFF"></rect><rect id="path-64" x="721.9331053373535" y="412.8" width="4.091261277617014" height="206.4" fill-rule="evenodd" fill="#74c476" stroke="#FFF"></rect><rect id="path-65" x="721.9331053373535" y="619.1999999999999" width="3.275621760027878" height="206.4" fill-rule="evenodd" fill="#d9d9d9" stroke="#FFF"></rect><rect id="path-66" x="721.9331053373535" y="825.6" width="3.275621760027878" height="206.4" fill-rule="evenodd" fill="#fdae6b" stroke="#FFF"></rect><rect id="path-67" x="726.0243666149705" y="412.8" width="0.979973949151267" height="206.4" fill-rule="evenodd" fill="#a1d99b" stroke="#FFF"></rect><rect id="path-68" x="726.0243666149705" y="619.1999999999999" width="0.979973949151267" height="206.4" fill-rule="evenodd" fill="#3182bd" stroke="#FFF"></rect><rect id="path-69" x="726.0243666149705" y="825.6" width="0.8789673733402066" height="206.4" fill-rule="evenodd" fill="#d9d9d9" stroke="#FFF"></rect><rect id="path-70" x="726.0243666149705" y="1032" width="0.8789673733402066" height="206.4" fill-rule="evenodd" fill="#fdae6b" stroke="#FFF"></rect><rect id="path-71" x="716.4701507079111" y="412.8" width="5.462954629442333" height="206.4" fill-rule="evenodd" fill="#c7e9c0" stroke="#FFF"></rect><rect id="path-72" x="716.4701507079111" y="619.1999999999999" width="5.178763735692304" height="206.4" fill-rule="evenodd" fill="#636363" stroke="#FFF" style="fill: rgb(99, 99, 99);"></rect><rect id="path-73" x="718.6304849408804" y="825.6" width="1.595826698932962" height="206.4" fill-rule="evenodd" fill="#969696" stroke="#FFF"></rect><rect id="path-74" x="718.6304849408804" y="1032" width="1.595826698932962" height="206.4" fill-rule="evenodd" fill="#9ecae1" stroke="#FFF"></rect><rect id="path-75" x="716.4701507079111" y="825.6" width="2.160334232969254" height="206.4" fill-rule="evenodd" fill="#bdbdbd" stroke="#FFF"></rect><rect id="path-76" x="716.4701507079111" y="1032" width="1.4344012380922675" height="206.4" fill-rule="evenodd" fill="#9ecae1" stroke="#FFF"></rect><rect id="path-77" x="717.9045519460034" y="1032" width="0.7259329948769861" height="206.4" fill-rule="evenodd" fill="#969696" stroke="#FFF"></rect><rect id="path-78" x="720.2263116398133" y="825.6" width="1.1709271280884486" height="206.4" fill-rule="evenodd" fill="#d9d9d9" stroke="#FFF"></rect><rect id="path-79" x="720.2263116398133" y="1032" width="1.1709271280884486" height="206.4" fill-rule="evenodd" fill="#fdae6b" stroke="#FFF"></rect><rect id="path-80" x="727.0043405641218" y="412.8" width="0.808141396212631" height="206.4" fill-rule="evenodd" fill="#31a354" stroke="#FFF"></rect><rect id="path-81" x="489.83366643863775" y="206.4" width="226.63648426927338" height="206.4" fill-rule="evenodd" fill="#756bb1" stroke="#FFF"></rect><rect id="path-82" x="489.83366643863775" y="412.8" width="121.19160911089408" height="206.4" fill-rule="evenodd" fill="#9e9ac8" stroke="#FFF"></rect><rect id="path-83" x="489.83366643863775" y="619.1999999999999" width="118.70237059826987" height="206.4" fill-rule="evenodd" fill="#bdbdbd" stroke="#FFF" style="fill: rgb(189, 189, 189);"></rect><rect id="path-84" x="520.096799707266" y="825.6" width="30.253814598412962" height="206.4" fill-rule="evenodd" fill="#d9d9d9" stroke="#FFF"></rect><rect id="path-85" x="520.096799707266" y="1032" width="29.197921176811732" height="206.4" fill-rule="evenodd" fill="#3182bd" stroke="#FFF"></rect><rect id="path-86" x="549.2947208840777" y="1032" width="1.0026371982767037" height="206.4" fill-rule="evenodd" fill="#6baed6" stroke="#FFF"></rect><rect id="path-87" x="580.5882789753206" y="825.6" width="12.20814004120532" height="206.4" fill-rule="evenodd" fill="#9ecae1" stroke="#FFF"></rect><rect id="path-88" x="580.5882789753206" y="1032" width="11.916968828279773" height="206.4" fill-rule="evenodd" fill="#9ecae1" stroke="#FFF"></rect><rect id="path-89" x="606.3122313299666" y="825.6" width="1.5130800234131008" height="206.4" fill-rule="evenodd" fill="#3182bd" stroke="#FFF"></rect><rect id="path-90" x="606.3122313299666" y="1032" width="1.3571258450133181" height="206.4" fill-rule="evenodd" fill="#d9d9d9" stroke="#FFF"></rect><rect id="path-91" x="604.6986122198027" y="825.6" width="1.6136191101638677" height="206.4" fill-rule="evenodd" fill="#c6dbef" stroke="#FFF"></rect><rect id="path-92" x="604.6986122198027" y="1032" width="0.9782430717048434" height="206.4" fill-rule="evenodd" fill="#dadaeb" stroke="#FFF"></rect><rect id="path-93" x="605.6768552915075" y="1032" width="0.6353760384590247" height="206.4" fill-rule="evenodd" fill="#e6550d" stroke="#FFF"></rect><rect id="path-94" x="607.8253113533797" y="825.6" width="0.7107256835279362" height="206.4" fill-rule="evenodd" fill="#e6550d" stroke="#FFF"></rect><rect id="path-95" x="592.7964190165259" y="825.6" width="11.902193203276841" height="206.4" fill-rule="evenodd" fill="#fd8d3c" stroke="#FFF"></rect><rect id="path-96" x="592.7964190165259" y="1032" width="11.902193203276841" height="206.4" fill-rule="evenodd" fill="#fd8d3c" stroke="#FFF"></rect><rect id="path-97" x="550.350614305679" y="825.6" width="30.237664669641646" height="206.4" fill-rule="evenodd" fill="#fdae6b" stroke="#FFF"></rect><rect id="path-98" x="574.8509956156558" y="1032" width="5.613630523866324" height="206.4" fill-rule="evenodd" fill="#d9d9d9" stroke="#FFF"></rect><rect id="path-99" x="568.9458836860578" y="1032" width="5.905111929598146" height="206.4" fill-rule="evenodd" fill="#fdd0a2" stroke="#FFF"></rect><rect id="path-100" x="550.350614305679" y="1032" width="18.595269380378838" height="206.4" fill-rule="evenodd" fill="#fdae6b" stroke="#FFF"></rect><rect id="path-101" x="489.83366643863775" y="825.6" width="30.263133268628174" height="206.4" fill-rule="evenodd" fill="#31a354" stroke="#FFF"></rect><rect id="path-102" x="489.83366643863775" y="1032" width="30.144407863384707" height="206.4" fill-rule="evenodd" fill="#31a354" stroke="#FFF"></rect><rect id="path-103" x="609.8220269576839" y="619.1999999999999" width="0.8256476798771674" height="206.4" fill-rule="evenodd" fill="#74c476" stroke="#FFF"></rect><rect id="path-104" x="609.8220269576839" y="825.6" width="0.8256476798771674" height="206.4" fill-rule="evenodd" fill="#756bb1" stroke="#FFF"></rect><rect id="path-105" x="609.8220269576839" y="1032" width="0.8229177909107068" height="206.4" fill-rule="evenodd" fill="#9e9ac8" stroke="#FFF"></rect><rect id="path-106" x="608.5360370369076" y="619.1999999999999" width="1.2859899207762961" height="206.4" fill-rule="evenodd" fill="#a1d99b" stroke="#FFF" style="fill: rgb(161, 217, 155);"></rect><rect id="path-107" x="608.5360370369076" y="825.6" width="1.2720169827556604" height="206.4" fill-rule="evenodd" fill="#fdd0a2" stroke="#FFF"></rect><rect id="path-108" x="708.0458346429023" y="412.8" width="8.263511401148481" height="206.4" fill-rule="evenodd" fill="#bcbddc" stroke="#FFF"></rect><rect id="path-109" x="708.0458346429023" y="619.1999999999999" width="7.795644382551419" height="206.4" fill-rule="evenodd" fill="#c7e9c0" stroke="#FFF"></rect><rect id="path-110" x="708.0458346429023" y="825.6" width="3.198194795741326" height="206.4" fill-rule="evenodd" fill="#756bb1" stroke="#FFF"></rect><rect id="path-111" x="708.0458346429023" y="1032" width="1.9405840232348963" height="206.4" fill-rule="evenodd" fill="#9e9ac8" stroke="#FFF"></rect><rect id="path-112" x="709.9864186661372" y="1032" width="1.0439449759352029" height="206.4" fill-rule="evenodd" fill="#756bb1" stroke="#FFF"></rect><rect id="path-113" x="711.2440294386436" y="825.6" width="1.6666516863822696" height="206.4" fill-rule="evenodd" fill="#bcbddc" stroke="#FFF"></rect><rect id="path-114" x="711.2440294386436" y="1032" width="0.6253415665831342" height="206.4" fill-rule="evenodd" fill="#bcbddc" stroke="#FFF"></rect><rect id="path-115" x="712.9106811250258" y="825.6" width="1.550136850562837" height="206.4" fill-rule="evenodd" fill="#dadaeb" stroke="#FFF"></rect><rect id="path-116" x="712.9106811250258" y="1032" width="0.847261344148944" height="206.4" fill-rule="evenodd" fill="#dadaeb" stroke="#FFF"></rect><rect id="path-117" x="714.4608179755886" y="825.6" width="1.3341285634890434" height="206.4" fill-rule="evenodd" fill="#c7e9c0" stroke="#FFF"></rect><rect id="path-118" x="611.0252755495318" y="412.8" width="97.02055909337044" height="206.4" fill-rule="evenodd" fill="#dadaeb" stroke="#FFF"></rect><rect id="path-119" x="611.0252755495318" y="619.1999999999999" width="81.26985575516122" height="206.4" fill-rule="evenodd" fill="#bdbdbd" stroke="#FFF" style="fill: rgb(189, 189, 189);"></rect><rect id="path-120" x="611.0252755495318" y="825.6" width="20.714752837814455" height="206.4" fill-rule="evenodd" fill="#d9d9d9" stroke="#FFF"></rect><rect id="path-121" x="611.0252755495318" y="1032" width="19.991783799302166" height="206.4" fill-rule="evenodd" fill="#3182bd" stroke="#FFF"></rect><rect id="path-122" x="631.017059348834" y="1032" width="0.6865045622838646" height="206.4" fill-rule="evenodd" fill="#6baed6" stroke="#FFF"></rect><rect id="path-123" x="673.1571391742995" y="825.6" width="8.36464579589259" height="206.4" fill-rule="evenodd" fill="#9ecae1" stroke="#FFF"></rect><rect id="path-124" x="673.1571391742995" y="1032" width="8.061270100485636" height="206.4" fill-rule="evenodd" fill="#9ecae1" stroke="#FFF"></rect><rect id="path-125" x="690.7724940376219" y="825.6" width="1.0360041907072792" height="206.4" fill-rule="evenodd" fill="#3182bd" stroke="#FFF"></rect><rect id="path-126" x="690.7724940376219" y="1032" width="0.9292225401135262" height="206.4" fill-rule="evenodd" fill="#d9d9d9" stroke="#FFF"></rect><rect id="path-127" x="689.6676508472635" y="825.6" width="1.1048431903582845" height="206.4" fill-rule="evenodd" fill="#c6dbef" stroke="#FFF"></rect><rect id="path-128" x="689.6676508472635" y="1032" width="0.6698019312491336" height="206.4" fill-rule="evenodd" fill="#dadaeb" stroke="#FFF"></rect><rect id="path-129" x="681.521784970192" y="825.6" width="8.145865877071499" height="206.4" fill-rule="evenodd" fill="#fd8d3c" stroke="#FFF"></rect><rect id="path-130" x="681.521784970192" y="1032" width="8.145865877071499" height="206.4" fill-rule="evenodd" fill="#fd8d3c" stroke="#FFF"></rect><rect id="path-131" x="652.4534441745556" y="825.6" width="20.703694999743888" height="206.4" fill-rule="evenodd" fill="#fdae6b" stroke="#FFF"></rect><rect id="path-132" x="667.4198558146347" y="1032" width="5.613630523866325" height="206.4" fill-rule="evenodd" fill="#d9d9d9" stroke="#FFF"></rect><rect id="path-133" x="661.5147438850366" y="1032" width="5.9051119295981485" height="206.4" fill-rule="evenodd" fill="#fdd0a2" stroke="#FFF"></rect><rect id="path-134" x="652.4534441745556" y="1032" width="9.06129971048108" height="206.4" fill-rule="evenodd" fill="#fdae6b" stroke="#FFF"></rect><rect id="path-135" x="631.7400283873462" y="825.6" width="20.71341578720936" height="206.4" fill-rule="evenodd" fill="#31a354" stroke="#FFF"></rect><rect id="path-136" x="631.7400283873462" y="1032" width="20.594690381965894" height="206.4" fill-rule="evenodd" fill="#31a354" stroke="#FFF"></rect><rect id="path-137" x="692.295131304693" y="619.1999999999999" width="14.45701036800728" height="206.4" fill-rule="evenodd" fill="#636363" stroke="#FFF" style="fill: rgb(99, 99, 99);"></rect><rect id="path-138" x="692.295131304693" y="825.6" width="14.16234859465249" height="206.4" fill-rule="evenodd" fill="#fdd0a2" stroke="#FFF"></rect><rect id="path-139" x="705.0650433424671" y="1032" width="0.8815715038625677" height="206.4" fill-rule="evenodd" fill="#a1d99b" stroke="#FFF"></rect><rect id="path-140" x="701.5038817362473" y="1032" width="3.5611616062198492" height="206.4" fill-rule="evenodd" fill="#74c476" stroke="#FFF"></rect><rect id="path-141" x="697.3552304640505" y="1032" width="4.148651272196874" height="206.4" fill-rule="evenodd" fill="#756bb1" stroke="#FFF"></rect><rect id="path-142" x="692.295131304693" y="1032" width="5.060099159357451" height="206.4" fill-rule="evenodd" fill="#c7e9c0" stroke="#FFF"></rect><rect id="path-143" x="706.7521416727003" y="619.1999999999999" width="0.997116558491205" height="206.4" fill-rule="evenodd" fill="#74c476" stroke="#FFF"></rect><rect id="path-144" x="706.7521416727003" y="825.6" width="0.997116558491205" height="206.4" fill-rule="evenodd" fill="#756bb1" stroke="#FFF"></rect><rect id="path-145" x="706.7521416727003" y="1032" width="0.9938197315786591" height="206.4" fill-rule="evenodd" fill="#9e9ac8" stroke="#FFF"></rect><text x="364.125" y="103.2" width="728.25" height="206.4" font-family="sans-serif" font-size="15px" fill="black" text-anchor="middle" pointer-events="none"><tspan text-anchor="middle" x="364.125">fluid_multirouter.py:85(_process_flpa_list)</tspan><tspan text-anchor="middle" x="364.125" dy="1.2em">205 s</tspan></text><text x="244.91683321931887" y="309.59999999999997" width="489.83366643863775" height="206.4" font-family="sans-serif" font-size="15px" fill="black" text-anchor="middle" pointer-events="none"><tspan text-anchor="middle" x="244.91683321931887">lpa_star.py:179(computeShortestPath)</tspan><tspan text-anchor="middle" x="244.91683321931887" dy="1.2em">138 s</tspan></text><text x="240.14395969525833" y="516" width="480.28791939051666" height="206.4" font-family="sans-serif" font-size="15px" fill="black" text-anchor="middle" pointer-events="none"><tspan text-anchor="middle" x="240.14395969525833">lpa_star.py:168(_updateVertex)</tspan><tspan text-anchor="middle" x="240.14395969525833" dy="1.2em">139 s</tspan></text></g></svg>