<svg width="938.25" height="1092"><g id="container" transform="translate(90,60)"><rect id="path-0" x="0" y="0" width="848.25" height="206.4" fill-rule="evenodd" fill="#c6dbef" stroke="#FFF" style="fill: rgb(198, 219, 239);"></rect><rect id="path-1" x="0" y="206.4" width="715.4664040085413" height="206.4" fill-rule="evenodd" fill="#e6550d" stroke="#FFF"></rect><rect id="path-2" x="699.0686026191918" y="412.8" width="13.844972907193958" height="206.4" fill-rule="evenodd" fill="#fd8d3c" stroke="#FFF"></rect><rect id="path-3" x="699.0686026191918" y="619.1999999999999" width="13.798195646758675" height="206.4" fill-rule="evenodd" fill="#c7e9c0" stroke="#FFF"></rect><rect id="path-4" x="699.0686026191918" y="825.6" width="13.086822198023809" height="206.4" fill-rule="evenodd" fill="#636363" stroke="#FFF"></rect><rect id="path-5" x="704.6408534703781" y="1032" width="4.02425509766866" height="206.4" fill-rule="evenodd" fill="#969696" stroke="#FFF"></rect><rect id="path-6" x="699.0686026191918" y="1032" width="5.572250851186326" height="206.4" fill-rule="evenodd" fill="#bdbdbd" stroke="#FFF"></rect><rect id="path-7" x="711.6341668855192" y="1032" width="0.5212579316963692" height="206.4" fill-rule="evenodd" fill="#636363" stroke="#FFF"></rect><rect id="path-8" x="708.6651085680468" y="1032" width="2.9690583174724523" height="206.4" fill-rule="evenodd" fill="#d9d9d9" stroke="#FFF"></rect><rect id="path-9" x="714.2866915248948" y="412.8" width="1.179712483646632" height="206.4" fill-rule="evenodd" fill="#fdae6b" stroke="#FFF"></rect><rect id="path-10" x="714.2866915248948" y="619.1999999999999" width="0.5012104590777429" height="206.4" fill-rule="evenodd" fill="#fdae6b" stroke="#FFF"></rect><rect id="path-11" x="0" y="412.8" width="699.0686026191918" height="206.4" fill-rule="evenodd" fill="#fdd0a2" stroke="#FFF"></rect><rect id="path-12" x="695.0678238469764" y="619.1999999999999" width="1.8760910266131958" height="206.4" fill-rule="evenodd" fill="#3182bd" stroke="#FFF"></rect><rect id="path-13" x="695.0678238469764" y="825.6" width="0.9688709469525268" height="206.4" fill-rule="evenodd" fill="#969696" stroke="#FFF"></rect><rect id="path-14" x="695.0678238469764" y="1032" width="0.9688709469525268" height="206.4" fill-rule="evenodd" fill="#6baed6" stroke="#FFF"></rect><rect id="path-15" x="696.0366947939289" y="825.6" width="0.9072200796606691" height="206.4" fill-rule="evenodd" fill="#3182bd" stroke="#FFF"></rect><rect id="path-16" x="585.6837404992108" y="619.1999999999999" width="28.76951884739059" height="206.4" fill-rule="evenodd" fill="#9ecae1" stroke="#FFF"></rect><rect id="path-17" x="585.6837404992108" y="825.6" width="15.645996990692135" height="206.4" fill-rule="evenodd" fill="#c6dbef" stroke="#FFF"></rect><rect id="path-18" x="585.6837404992108" y="1032" width="15.645996990692135" height="206.4" fill-rule="evenodd" fill="#e6550d" stroke="#FFF"></rect><rect id="path-19" x="609.6838554677068" y="825.6" width="4.769403878894484" height="206.4" fill-rule="evenodd" fill="#fd8d3c" stroke="#FFF"></rect><rect id="path-20" x="609.6838554677068" y="1032" width="4.769403878894484" height="206.4" fill-rule="evenodd" fill="#e6550d" stroke="#FFF"></rect><rect id="path-21" x="601.3297374899029" y="825.6" width="8.35411797780397" height="206.4" fill-rule="evenodd" fill="#9ecae1" stroke="#FFF"></rect><rect id="path-22" x="690.7157901617389" y="619.1999999999999" width="4.352033685237412" height="206.4" fill-rule="evenodd" fill="#fdae6b" stroke="#FFF"></rect><rect id="path-23" x="693.3217213899247" y="825.6" width="1.7461024570516306" height="206.4" fill-rule="evenodd" fill="#969696" stroke="#FFF"></rect><rect id="path-24" x="693.3217213899247" y="1032" width="1.7461024570516306" height="206.4" fill-rule="evenodd" fill="#6baed6" stroke="#FFF"></rect><rect id="path-25" x="690.7157901617389" y="825.6" width="2.605931228185782" height="206.4" fill-rule="evenodd" fill="#fdd0a2" stroke="#FFF"></rect><rect id="path-26" x="690.7157901617389" y="1032" width="2.4973985712281843" height="206.4" fill-rule="evenodd" fill="#d9d9d9" stroke="#FFF"></rect><rect id="path-27" x="309.3829238334732" y="619.1999999999999" width="223.74166303716217" height="206.4" fill-rule="evenodd" fill="#74c476" stroke="#FFF"></rect><rect id="path-28" x="525.7965379501642" y="825.6" width="6.9906068790206355" height="206.4" fill-rule="evenodd" fill="#31a354" stroke="#FFF"></rect><rect id="path-29" x="515.9559918012394" y="825.6" width="9.840546148924727" height="206.4" fill-rule="evenodd" fill="#74c476" stroke="#FFF"></rect><rect id="path-30" x="445.1816936954281" y="825.6" width="70.77429810581121" height="206.4" fill-rule="evenodd" fill="#d9d9d9" stroke="#FFF"></rect><rect id="path-31" x="483.4127381583984" y="1032" width="32.543253642840966" height="206.4" fill-rule="evenodd" fill="#a1d99b" stroke="#FFF"></rect><rect id="path-32" x="445.1816936954281" y="1032" width="38.23104446297025" height="206.4" fill-rule="evenodd" fill="#d9d9d9" stroke="#FFF"></rect><rect id="path-33" x="309.3829238334732" y="825.6" width="135.79876986195498" height="206.4" fill-rule="evenodd" fill="#74c476" stroke="#FFF"></rect><rect id="path-34" x="677.7673129399661" y="619.1999999999999" width="12.94847722177279" height="206.4" fill-rule="evenodd" fill="#fdae6b" stroke="#FFF"></rect><rect id="path-35" x="690.2030936695919" y="825.6" width="0.5126964921469211" height="206.4" fill-rule="evenodd" fill="#bcbddc" stroke="#FFF"></rect><rect id="path-36" x="686.1256272331841" y="825.6" width="2.624888542960642" height="206.4" fill-rule="evenodd" fill="#a1d99b" stroke="#FFF"></rect><rect id="path-37" x="686.1256272331841" y="1032" width="2.624888542960642" height="206.4" fill-rule="evenodd" fill="#fdd0a2" stroke="#FFF"></rect><rect id="path-38" x="682.6514394197088" y="825.6" width="3.4741878134753024" height="206.4" fill-rule="evenodd" fill="#c7e9c0" stroke="#FFF"></rect><rect id="path-39" x="682.6514394197088" y="1032" width="2.9411625044335046" height="206.4" fill-rule="evenodd" fill="#74c476" stroke="#FFF"></rect><rect id="path-40" x="685.5926019241423" y="1032" width="0.5330253090417978" height="206.4" fill-rule="evenodd" fill="#c7e9c0" stroke="#FFF"></rect><rect id="path-41" x="677.7673129399661" y="825.6" width="4.884126479742746" height="206.4" fill-rule="evenodd" fill="#fdae6b" stroke="#FFF"></rect><rect id="path-42" x="680.6918531978102" y="1032" width="1.9595862218985811" height="206.4" fill-rule="evenodd" fill="#969696" stroke="#FFF"></rect><rect id="path-43" x="677.7673129399661" y="1032" width="2.924540257844165" height="206.4" fill-rule="evenodd" fill="#fdd0a2" stroke="#FFF"></rect><rect id="path-44" x="688.7505157761448" y="825.6" width="1.4525778934471798" height="206.4" fill-rule="evenodd" fill="#fdae6b" stroke="#FFF"></rect><rect id="path-45" x="533.1245868706353" y="619.1999999999999" width="52.55915362857546" height="206.4" fill-rule="evenodd" fill="#a1d99b" stroke="#FFF"></rect><rect id="path-46" x="533.1245868706353" y="825.6" width="33.32676401280821" height="206.4" fill-rule="evenodd" fill="#fdd0a2" stroke="#FFF"></rect><rect id="path-47" x="565.803066777695" y="1032" width="0.648284105748526" height="206.4" fill-rule="evenodd" fill="#969696" stroke="#FFF"></rect><rect id="path-48" x="550.8856783636359" y="1032" width="14.917388414059095" height="206.4" fill-rule="evenodd" fill="#d9d9d9" stroke="#FFF"></rect><rect id="path-49" x="533.1245868706353" y="1032" width="17.761091493000592" height="206.4" fill-rule="evenodd" fill="#fdd0a2" stroke="#FFF"></rect><rect id="path-50" x="566.4513508834435" y="825.6" width="19.232389615767246" height="206.4" fill-rule="evenodd" fill="#a1d99b" stroke="#FFF"></rect><rect id="path-51" x="638.089938430943" y="619.1999999999999" width="20.616089654264993" height="206.4" fill-rule="evenodd" fill="#756bb1" stroke="#FFF"></rect><rect id="path-52" x="638.089938430943" y="825.6" width="9.554881977111236" height="206.4" fill-rule="evenodd" fill="#c6dbef" stroke="#FFF"></rect><rect id="path-53" x="638.089938430943" y="1032" width="9.554881977111236" height="206.4" fill-rule="evenodd" fill="#e6550d" stroke="#FFF"></rect><rect id="path-54" x="654.6002948019136" y="825.6" width="4.105733283294332" height="206.4" fill-rule="evenodd" fill="#fd8d3c" stroke="#FFF"></rect><rect id="path-55" x="654.6002948019136" y="1032" width="4.105733283294332" height="206.4" fill-rule="evenodd" fill="#e6550d" stroke="#FFF"></rect><rect id="path-56" x="647.6448204080542" y="825.6" width="6.955474393859426" height="206.4" fill-rule="evenodd" fill="#756bb1" stroke="#FFF"></rect><rect id="path-57" x="658.706028085208" y="619.1999999999999" width="19.061284854758142" height="206.4" fill-rule="evenodd" fill="#9e9ac8" stroke="#FFF"></rect><rect id="path-58" x="658.706028085208" y="825.6" width="8.776220682733586" height="206.4" fill-rule="evenodd" fill="#c6dbef" stroke="#FFF"></rect><rect id="path-59" x="658.706028085208" y="1032" width="8.776220682733586" height="206.4" fill-rule="evenodd" fill="#e6550d" stroke="#FFF"></rect><rect id="path-60" x="672.8633821827552" y="825.6" width="4.903930757210863" height="206.4" fill-rule="evenodd" fill="#fd8d3c" stroke="#FFF"></rect><rect id="path-61" x="672.8633821827552" y="1032" width="4.903930757210863" height="206.4" fill-rule="evenodd" fill="#e6550d" stroke="#FFF"></rect><rect id="path-62" x="667.4822487679415" y="825.6" width="5.381133414813693" height="206.4" fill-rule="evenodd" fill="#9e9ac8" stroke="#FFF"></rect><rect id="path-63" x="696.9439148735895" y="619.1999999999999" width="1.2385541508973967" height="206.4" fill-rule="evenodd" fill="#bcbddc" stroke="#FFF"></rect><rect id="path-64" x="698.1824690244869" y="619.1999999999999" width="0.8861335947049175" height="206.4" fill-rule="evenodd" fill="#d9d9d9" stroke="#FFF"></rect><rect id="path-65" x="698.1824690244869" y="825.6" width="0.8861335947049175" height="206.4" fill-rule="evenodd" fill="#a1d99b" stroke="#FFF"></rect><rect id="path-66" x="0" y="619.1999999999999" width="309.3829238334732" height="206.4" fill-rule="evenodd" fill="#c7e9c0" stroke="#FFF"></rect><rect id="path-67" x="295.55859398975997" y="825.6" width="8.197047560568617" height="206.4" fill-rule="evenodd" fill="#74c476" stroke="#FFF"></rect><rect id="path-68" x="303.75564155032856" y="825.6" width="5.627282283144597" height="206.4" fill-rule="evenodd" fill="#dadaeb" stroke="#FFF"></rect><rect id="path-69" x="0" y="825.6" width="254.38294837500305" height="206.4" fill-rule="evenodd" fill="#636363" stroke="#FFF"></rect><rect id="path-70" x="177.39916419163876" y="1032" width="41.22688728853556" height="206.4" fill-rule="evenodd" fill="#969696" stroke="#FFF"></rect><rect id="path-71" x="120.31367825452938" y="1032" width="57.085485937109375" height="206.4" fill-rule="evenodd" fill="#bdbdbd" stroke="#FFF"></rect><rect id="path-72" x="249.0428689126571" y="1032" width="5.340079462345943" height="206.4" fill-rule="evenodd" fill="#636363" stroke="#FFF"></rect><rect id="path-73" x="218.6260514801743" y="1032" width="30.41681743248278" height="206.4" fill-rule="evenodd" fill="#d9d9d9" stroke="#FFF"></rect><rect id="path-74" x="0" y="1032" width="120.31367825452938" height="206.4" fill-rule="evenodd" fill="#636363" stroke="#FFF"></rect><rect id="path-75" x="254.38294837500305" y="825.6" width="41.175645614756974" height="206.4" fill-rule="evenodd" fill="#c7e9c0" stroke="#FFF"></rect><rect id="path-76" x="614.4532593466014" y="619.1999999999999" width="23.63667908434158" height="206.4" fill-rule="evenodd" fill="#fdd0a2" stroke="#FFF"></rect><rect id="path-77" x="712.9135755263858" y="412.8" width="1.3731159985089527" height="206.4" fill-rule="evenodd" fill="#e6550d" stroke="#FFF"></rect><rect id="path-78" x="836.8847154686331" y="206.4" width="11.127003754437462" height="206.4" fill-rule="evenodd" fill="#31a354" stroke="#FFF"></rect><rect id="path-79" x="842.1587917349655" y="412.8" width="3.9650051833104785" height="206.4" fill-rule="evenodd" fill="#74c476" stroke="#FFF"></rect><rect id="path-80" x="842.1587917349655" y="619.1999999999999" width="3.190939582526891" height="206.4" fill-rule="evenodd" fill="#d9d9d9" stroke="#FFF"></rect><rect id="path-81" x="842.1587917349655" y="825.6" width="3.190939582526891" height="206.4" fill-rule="evenodd" fill="#a1d99b" stroke="#FFF"></rect><rect id="path-82" x="846.123796918276" y="412.8" width="0.9220703736538295" height="206.4" fill-rule="evenodd" fill="#a1d99b" stroke="#FFF"></rect><rect id="path-83" x="846.123796918276" y="619.1999999999999" width="0.9220703736538295" height="206.4" fill-rule="evenodd" fill="#fdd0a2" stroke="#FFF"></rect><rect id="path-84" x="846.123796918276" y="825.6" width="0.8836676919283394" height="206.4" fill-rule="evenodd" fill="#d9d9d9" stroke="#FFF"></rect><rect id="path-85" x="846.123796918276" y="1032" width="0.8836676919283394" height="206.4" fill-rule="evenodd" fill="#a1d99b" stroke="#FFF"></rect><rect id="path-86" x="836.8847154686331" y="412.8" width="5.2740762663324245" height="206.4" fill-rule="evenodd" fill="#c7e9c0" stroke="#FFF"></rect><rect id="path-87" x="836.8847154686331" y="619.1999999999999" width="5.002168408339924" height="206.4" fill-rule="evenodd" fill="#636363" stroke="#FFF"></rect><rect id="path-88" x="839.0145936582641" y="825.6" width="1.5381886765221602" height="206.4" fill-rule="evenodd" fill="#969696" stroke="#FFF"></rect><rect id="path-89" x="839.0145936582641" y="1032" width="1.5381886765221602" height="206.4" fill-rule="evenodd" fill="#6baed6" stroke="#FFF"></rect><rect id="path-90" x="836.8847154686331" y="825.6" width="2.1298781896309813" height="206.4" fill-rule="evenodd" fill="#bdbdbd" stroke="#FFF"></rect><rect id="path-91" x="836.8847154686331" y="1032" width="1.393198438233582" height="206.4" fill-rule="evenodd" fill="#6baed6" stroke="#FFF"></rect><rect id="path-92" x="838.2779139068666" y="1032" width="0.7366797513973996" height="206.4" fill-rule="evenodd" fill="#969696" stroke="#FFF"></rect><rect id="path-93" x="840.5527823347862" y="825.6" width="1.1348614272777613" height="206.4" fill-rule="evenodd" fill="#d9d9d9" stroke="#FFF"></rect><rect id="path-94" x="840.5527823347862" y="1032" width="1.1348614272777613" height="206.4" fill-rule="evenodd" fill="#a1d99b" stroke="#FFF"></rect><rect id="path-95" x="847.0458672919298" y="412.8" width="0.7937913427317463" height="206.4" fill-rule="evenodd" fill="#31a354" stroke="#FFF"></rect><rect id="path-96" x="715.4664040085413" y="206.4" width="121.41831146009183" height="206.4" fill-rule="evenodd" fill="#756bb1" stroke="#FFF"></rect><rect id="path-97" x="775.7691481568831" y="412.8" width="54.79524022510663" height="206.4" fill-rule="evenodd" fill="#9e9ac8" stroke="#FFF"></rect><rect id="path-98" x="775.7691481568831" y="619.1999999999999" width="53.245400467235015" height="206.4" fill-rule="evenodd" fill="#bdbdbd" stroke="#FFF"></rect><rect id="path-99" x="790.763776724033" y="825.6" width="14.975704324275709" height="206.4" fill-rule="evenodd" fill="#d9d9d9" stroke="#FFF"></rect><rect id="path-100" x="790.763776724033" y="1032" width="14.690639247812204" height="206.4" fill-rule="evenodd" fill="#3182bd" stroke="#FFF"></rect><rect id="path-101" x="820.6875532683512" y="825.6" width="4.045374056745399" height="206.4" fill-rule="evenodd" fill="#6baed6" stroke="#FFF"></rect><rect id="path-102" x="820.6875532683512" y="1032" width="3.486016868480251" height="206.4" fill-rule="evenodd" fill="#6baed6" stroke="#FFF"></rect><rect id="path-103" x="827.7661138519076" y="825.6" width="0.73939637879495" height="206.4" fill-rule="evenodd" fill="#fdd0a2" stroke="#FFF"></rect><rect id="path-104" x="827.7661138519076" y="1032" width="0.7086017620117167" height="206.4" fill-rule="evenodd" fill="#d9d9d9" stroke="#FFF"></rect><rect id="path-105" x="826.8770938689112" y="825.6" width="0.8890199829963851" height="206.4" fill-rule="evenodd" fill="#9ecae1" stroke="#FFF"></rect><rect id="path-106" x="826.8770938689112" y="1032" width="0.5164416540841422" height="206.4" fill-rule="evenodd" fill="#dadaeb" stroke="#FFF"></rect><rect id="path-107" x="824.7329273250965" y="825.6" width="2.1441665438146984" height="206.4" fill-rule="evenodd" fill="#c6dbef" stroke="#FFF"></rect><rect id="path-108" x="824.7329273250965" y="1032" width="2.137056120474174" height="206.4" fill-rule="evenodd" fill="#c6dbef" stroke="#FFF"></rect><rect id="path-109" x="805.7394810483088" y="825.6" width="14.948072220042354" height="206.4" fill-rule="evenodd" fill="#e6550d" stroke="#FFF"></rect><rect id="path-110" x="817.8571501779859" y="1032" width="2.7645325947958574" height="206.4" fill-rule="evenodd" fill="#d9d9d9" stroke="#FFF"></rect><rect id="path-111" x="805.7394810483088" y="1032" width="12.117669129677148" height="206.4" fill-rule="evenodd" fill="#e6550d" stroke="#FFF"></rect><rect id="path-112" x="775.7691481568831" y="825.6" width="14.994628567149874" height="206.4" fill-rule="evenodd" fill="#fd8d3c" stroke="#FFF"></rect><rect id="path-113" x="775.7691481568831" y="1032" width="14.320945096714462" height="206.4" fill-rule="evenodd" fill="#fd8d3c" stroke="#FFF"></rect><rect id="path-114" x="829.0145486241181" y="619.1999999999999" width="1.304891502006417" height="206.4" fill-rule="evenodd" fill="#fdae6b" stroke="#FFF"></rect><rect id="path-115" x="829.0145486241181" y="825.6" width="1.2933982603445202" height="206.4" fill-rule="evenodd" fill="#fdd0a2" stroke="#FFF"></rect><rect id="path-116" x="829.0145486241181" y="1032" width="0.5925163655881799" height="206.4" fill-rule="evenodd" fill="#c7e9c0" stroke="#FFF"></rect><rect id="path-117" x="830.5643883819898" y="412.8" width="6.187548673082795" height="206.4" fill-rule="evenodd" fill="#bcbddc" stroke="#FFF"></rect><rect id="path-118" x="830.5643883819898" y="619.1999999999999" width="5.885215803930043" height="206.4" fill-rule="evenodd" fill="#fdd0a2" stroke="#FFF"></rect><rect id="path-119" x="834.2691753839006" y="825.6" width="1.1481818358825033" height="206.4" fill-rule="evenodd" fill="#31a354" stroke="#FFF"></rect><rect id="path-120" x="834.2691753839006" y="1032" width="0.6467804260584806" height="206.4" fill-rule="evenodd" fill="#31a354" stroke="#FFF"></rect><rect id="path-121" x="830.5643883819898" y="825.6" width="2.486596637203297" height="206.4" fill-rule="evenodd" fill="#74c476" stroke="#FFF"></rect><rect id="path-122" x="830.5643883819898" y="1032" width="1.529160649754138" height="206.4" fill-rule="evenodd" fill="#a1d99b" stroke="#FFF"></rect><rect id="path-123" x="832.0935490317439" y="1032" width="0.8050980814863513" height="206.4" fill-rule="evenodd" fill="#74c476" stroke="#FFF"></rect><rect id="path-124" x="833.0509850191931" y="825.6" width="1.2181903647074035" height="206.4" fill-rule="evenodd" fill="#c7e9c0" stroke="#FFF"></rect><rect id="path-125" x="835.4173572197831" y="825.6" width="0.9978838054682067" height="206.4" fill-rule="evenodd" fill="#fdd0a2" stroke="#FFF"></rect><rect id="path-126" x="715.4664040085413" y="412.8" width="60.30274414834187" height="206.4" fill-rule="evenodd" fill="#dadaeb" stroke="#FFF"></rect><rect id="path-127" x="715.4664040085413" y="619.1999999999999" width="46.350705773903115" height="206.4" fill-rule="evenodd" fill="#bdbdbd" stroke="#FFF"></rect><rect id="path-128" x="728.5193928264695" y="825.6" width="13.036515056706412" height="206.4" fill-rule="evenodd" fill="#d9d9d9" stroke="#FFF"></rect><rect id="path-129" x="728.5193928264695" y="1032" width="12.788362777455442" height="206.4" fill-rule="evenodd" fill="#3182bd" stroke="#FFF"></rect><rect id="path-130" x="754.5683688897298" y="825.6" width="3.5215425370867504" height="206.4" fill-rule="evenodd" fill="#6baed6" stroke="#FFF"></rect><rect id="path-131" x="754.5683688897298" y="1032" width="2.9621853488216017" height="206.4" fill-rule="evenodd" fill="#6baed6" stroke="#FFF"></rect><rect id="path-132" x="760.7303336046551" y="825.6" width="0.6436526667670276" height="206.4" fill-rule="evenodd" fill="#fdd0a2" stroke="#FFF"></rect><rect id="path-133" x="760.7303336046551" y="1032" width="0.6168456147134314" height="206.4" fill-rule="evenodd" fill="#d9d9d9" stroke="#FFF"></rect><rect id="path-134" x="759.9564319474717" y="825.6" width="0.7739016571833782" height="206.4" fill-rule="evenodd" fill="#9ecae1" stroke="#FFF"></rect><rect id="path-135" x="758.0899114268165" y="825.6" width="1.8665205206552693" height="206.4" fill-rule="evenodd" fill="#c6dbef" stroke="#FFF"></rect><rect id="path-136" x="758.0899114268165" y="1032" width="1.8594100973147452" height="206.4" fill-rule="evenodd" fill="#c6dbef" stroke="#FFF"></rect><rect id="path-137" x="741.5559078831759" y="825.6" width="13.012461006553815" height="206.4" fill-rule="evenodd" fill="#e6550d" stroke="#FFF"></rect><rect id="path-138" x="751.7379657993645" y="1032" width="2.7645325947958574" height="206.4" fill-rule="evenodd" fill="#d9d9d9" stroke="#FFF"></rect><rect id="path-139" x="741.5559078831759" y="1032" width="10.182057916188608" height="206.4" fill-rule="evenodd" fill="#e6550d" stroke="#FFF"></rect><rect id="path-140" x="715.4664040085413" y="825.6" width="13.052988817928178" height="206.4" fill-rule="evenodd" fill="#fd8d3c" stroke="#FFF"></rect><rect id="path-141" x="715.4664040085413" y="1032" width="12.379305347492762" height="206.4" fill-rule="evenodd" fill="#fd8d3c" stroke="#FFF"></rect><rect id="path-142" x="761.8171097824444" y="619.1999999999999" width="13.82244216673391" height="206.4" fill-rule="evenodd" fill="#756bb1" stroke="#FFF"></rect><rect id="path-143" x="761.8171097824444" y="825.6" width="13.535192720208434" height="206.4" fill-rule="evenodd" fill="#fdd0a2" stroke="#FFF"></rect><rect id="path-144" x="773.5539970821632" y="1032" width="0.5764616055524641" height="206.4" fill-rule="evenodd" fill="#9ecae1" stroke="#FFF"></rect><rect id="path-145" x="768.0176927304818" y="1032" width="4.483164247117025" height="206.4" fill-rule="evenodd" fill="#74c476" stroke="#FFF"></rect><rect id="path-146" x="772.5008569775988" y="1032" width="1.0531401045643594" height="206.4" fill-rule="evenodd" fill="#a1d99b" stroke="#FFF"></rect><rect id="path-147" x="761.8171097824444" y="1032" width="6.200582948037416" height="206.4" fill-rule="evenodd" fill="#c7e9c0" stroke="#FFF"></rect><text x="424.125" y="103.2" width="848.25" height="206.4" font-family="sans-serif" font-size="15px" fill="black" text-anchor="middle" pointer-events="none"><tspan text-anchor="middle" x="424.125">fluid_multirouter.py:85(_process_flpa_list)</tspan><tspan text-anchor="middle" x="424.125" dy="1.2em">72.9 s</tspan></text><text x="357.73320200427065" y="309.59999999999997" width="715.4664040085413" height="206.4" font-family="sans-serif" font-size="15px" fill="black" text-anchor="middle" pointer-events="none"><tspan text-anchor="middle" x="357.73320200427065">lpa_star.py:179(computeShortestPath)</tspan><tspan text-anchor="middle" x="357.73320200427065" dy="1.2em">61.5 s</tspan></text><text x="349.5343013095959" y="516" width="699.0686026191918" height="206.4" font-family="sans-serif" font-size="15px" fill="black" text-anchor="middle" pointer-events="none"><tspan text-anchor="middle" x="349.5343013095959">lpa_star.py:168(_updateVertex)</tspan><tspan text-anchor="middle" x="349.5343013095959" dy="1.2em">61.3 s</tspan></text><text x="421.2537553520543" y="722.4" width="223.74166303716217" height="206.4" font-family="sans-serif" font-size="15px" fill="black" text-anchor="middle" pointer-events="none"><tspan text-anchor="middle" x="421.2537553520543">lpa_fluid_router.py:57(_c)</tspan><tspan text-anchor="middle" x="421.2537553520543" dy="1.2em">19.8 s</tspan></text><text x="154.6914619167366" y="722.4" width="309.3829238334732" height="206.4" font-family="sans-serif" font-size="15px" fill="black" text-anchor="middle" pointer-events="none"><tspan text-anchor="middle" x="154.6914619167366">lpa_fluid_router.py:20(pred)</tspan><tspan text-anchor="middle" x="154.6914619167366" dy="1.2em">28.2 s</tspan></text></g></svg>