<svg width="818.25" height="1092"><g id="container" transform="translate(90,60)"><rect id="path-0" x="0" y="0" width="728.25" height="206.4" fill-rule="evenodd" fill="#c6dbef" stroke="#FFF" style="fill: rgb(198, 219, 239);"></rect><rect id="path-1" x="0" y="206.4" width="542.9831588320999" height="206.4" fill-rule="evenodd" fill="#e6550d" stroke="#FFF"></rect><rect id="path-2" x="535.4384960000548" y="412.8" width="6.222054002261952" height="206.4" fill-rule="evenodd" fill="#fd8d3c" stroke="#FFF"></rect><rect id="path-3" x="535.4384960000548" y="619.1999999999999" width="6.199112809544155" height="206.4" fill-rule="evenodd" fill="#c7e9c0" stroke="#FFF"></rect><rect id="path-4" x="535.4384960000548" y="825.6" width="5.881468360181536" height="206.4" fill-rule="evenodd" fill="#636363" stroke="#FFF"></rect><rect id="path-5" x="537.8914625905726" y="1032" width="1.8060909981391162" height="206.4" fill-rule="evenodd" fill="#969696" stroke="#FFF"></rect><rect id="path-6" x="535.4384960000548" y="1032" width="2.45296659051785" height="206.4" fill-rule="evenodd" fill="#bdbdbd" stroke="#FFF"></rect><rect id="path-7" x="539.6975535887117" y="1032" width="1.335477065550606" height="206.4" fill-rule="evenodd" fill="#d9d9d9" stroke="#FFF"></rect><rect id="path-8" x="542.3289364375431" y="412.8" width="0.6542223945568529" height="206.4" fill-rule="evenodd" fill="#fdae6b" stroke="#FFF"></rect><rect id="path-9" x="0" y="412.8" width="535.4384960000548" height="206.4" fill-rule="evenodd" fill="#fdd0a2" stroke="#FFF"></rect><rect id="path-10" x="135.5710475862648" y="619.1999999999999" width="134.74865768294256" height="206.4" fill-rule="evenodd" fill="#3182bd" stroke="#FFF"></rect><rect id="path-11" x="135.5710475862648" y="825.6" width="134.36512970890098" height="206.4" fill-rule="evenodd" fill="#6baed6" stroke="#FFF"></rect><rect id="path-12" x="135.5710475862648" y="1032" width="134.36512970890098" height="206.4" fill-rule="evenodd" fill="#9ecae1" stroke="#FFF"></rect><rect id="path-13" x="529.8808205512955" y="619.1999999999999" width="1.99570225506706" height="206.4" fill-rule="evenodd" fill="#c6dbef" stroke="#FFF"></rect><rect id="path-14" x="531.1320676103435" y="825.6" width="0.7444551960191136" height="206.4" fill-rule="evenodd" fill="#969696" stroke="#FFF"></rect><rect id="path-15" x="531.1320676103435" y="1032" width="0.7444551960191136" height="206.4" fill-rule="evenodd" fill="#e6550d" stroke="#FFF"></rect><rect id="path-16" x="529.8808205512955" y="825.6" width="1.251247059047946" height="206.4" fill-rule="evenodd" fill="#fd8d3c" stroke="#FFF"></rect><rect id="path-17" x="529.8808205512955" y="1032" width="1.123123838175516" height="206.4" fill-rule="evenodd" fill="#d9d9d9" stroke="#FFF"></rect><rect id="path-18" x="533.3201412746547" y="619.1999999999999" width="0.8435941416058017" height="206.4" fill-rule="evenodd" fill="#fdae6b" stroke="#FFF"></rect><rect id="path-19" x="270.31970526920736" y="619.1999999999999" width="132.90893706238109" height="206.4" fill-rule="evenodd" fill="#fdd0a2" stroke="#FFF"></rect><rect id="path-20" x="270.31970526920736" y="825.6" width="113.13368123952938" height="206.4" fill-rule="evenodd" fill="#6baed6" stroke="#FFF"></rect><rect id="path-21" x="270.31970526920736" y="1032" width="113.13368123952938" height="206.4" fill-rule="evenodd" fill="#9ecae1" stroke="#FFF"></rect><rect id="path-22" x="383.45338650873674" y="825.6" width="18.99812561144239" height="206.4" fill-rule="evenodd" fill="#31a354" stroke="#FFF"></rect><rect id="path-23" x="383.45338650873674" y="1032" width="11.053633951412873" height="206.4" fill-rule="evenodd" fill="#969696" stroke="#FFF"></rect><rect id="path-24" x="394.50702046014965" y="1032" width="7.944491660029518" height="206.4" fill-rule="evenodd" fill="#31a354" stroke="#FFF"></rect><rect id="path-25" x="534.1637354162605" y="619.1999999999999" width="0.7337120737096551" height="206.4" fill-rule="evenodd" fill="#74c476" stroke="#FFF"></rect><rect id="path-26" x="523.6027510418713" y="619.1999999999999" width="6.278069509424207" height="206.4" fill-rule="evenodd" fill="#fdae6b" stroke="#FFF"></rect><rect id="path-27" x="527.7916307054669" y="825.6" width="1.2408641024526024" height="206.4" fill-rule="evenodd" fill="#a1d99b" stroke="#FFF"></rect><rect id="path-28" x="527.7916307054669" y="1032" width="1.2408641024526024" height="206.4" fill-rule="evenodd" fill="#fd8d3c" stroke="#FFF"></rect><rect id="path-29" x="525.9281887180854" y="825.6" width="1.8634419873815535" height="206.4" fill-rule="evenodd" fill="#a1d99b" stroke="#FFF"></rect><rect id="path-30" x="525.9281887180854" y="1032" width="1.6068802646109086" height="206.4" fill-rule="evenodd" fill="#74c476" stroke="#FFF"></rect><rect id="path-31" x="523.6027510418713" y="825.6" width="2.325437676214104" height="206.4" fill-rule="evenodd" fill="#c6dbef" stroke="#FFF"></rect><rect id="path-32" x="525.060732584947" y="1032" width="0.8674561331384733" height="206.4" fill-rule="evenodd" fill="#969696" stroke="#FFF"></rect><rect id="path-33" x="523.6027510418713" y="1032" width="1.457981543075631" height="206.4" fill-rule="evenodd" fill="#fd8d3c" stroke="#FFF"></rect><rect id="path-34" x="529.0324948079195" y="825.6" width="0.5992429048076576" height="206.4" fill-rule="evenodd" fill="#fdae6b" stroke="#FFF"></rect><rect id="path-35" x="500.3700418163149" y="619.1999999999999" width="23.232709225556427" height="206.4" fill-rule="evenodd" fill="#a1d99b" stroke="#FFF"></rect><rect id="path-36" x="500.3700418163149" y="825.6" width="15.063457252052752" height="206.4" fill-rule="evenodd" fill="#fd8d3c" stroke="#FFF"></rect><rect id="path-37" x="514.6879056903431" y="1032" width="0.745593378024545" height="206.4" fill-rule="evenodd" fill="#969696" stroke="#FFF"></rect><rect id="path-38" x="508.15205925483275" y="1032" width="6.535846435510332" height="206.4" fill-rule="evenodd" fill="#d9d9d9" stroke="#FFF"></rect><rect id="path-39" x="500.3700418163149" y="1032" width="7.782017438517874" height="206.4" fill-rule="evenodd" fill="#fd8d3c" stroke="#FFF"></rect><rect id="path-40" x="515.4334990683676" y="825.6" width="8.169251973503679" height="206.4" fill-rule="evenodd" fill="#a1d99b" stroke="#FFF"></rect><rect id="path-41" x="403.22864233158845" y="619.1999999999999" width="97.14139948472643" height="206.4" fill-rule="evenodd" fill="#74c476" stroke="#FFF"></rect><rect id="path-42" x="496.8747663640899" y="825.6" width="3.2859097650563056" height="206.4" fill-rule="evenodd" fill="#c7e9c0" stroke="#FFF"></rect><rect id="path-43" x="492.5337155572194" y="825.6" width="4.341050806870488" height="206.4" fill-rule="evenodd" fill="#756bb1" stroke="#FFF"></rect><rect id="path-44" x="461.4915652922485" y="825.6" width="31.042150264970974" height="206.4" fill-rule="evenodd" fill="#d9d9d9" stroke="#FFF"></rect><rect id="path-45" x="477.11974752202104" y="1032" width="15.41396803519836" height="206.4" fill-rule="evenodd" fill="#9e9ac8" stroke="#FFF"></rect><rect id="path-46" x="461.4915652922485" y="1032" width="15.628182229772614" height="206.4" fill-rule="evenodd" fill="#d9d9d9" stroke="#FFF"></rect><rect id="path-47" x="403.22864233158845" y="825.6" width="58.26292296065997" height="206.4" fill-rule="evenodd" fill="#74c476" stroke="#FFF"></rect><rect id="path-48" x="534.8974474899701" y="619.1999999999999" width="0.5410485100845979" height="206.4" fill-rule="evenodd" fill="#9e9ac8" stroke="#FFF"></rect><rect id="path-49" x="0" y="619.1999999999999" width="135.5710475862648" height="206.4" fill-rule="evenodd" fill="#c7e9c0" stroke="#FFF"></rect><rect id="path-50" x="129.46058076398995" y="825.6" width="3.633750177371948" height="206.4" fill-rule="evenodd" fill="#756bb1" stroke="#FFF"></rect><rect id="path-51" x="133.0943309413619" y="825.6" width="2.476716644902886" height="206.4" fill-rule="evenodd" fill="#bcbddc" stroke="#FFF"></rect><rect id="path-52" x="0" y="825.6" width="113.1707987787731" height="206.4" fill-rule="evenodd" fill="#636363" stroke="#FFF"></rect><rect id="path-53" x="78.3340392585657" y="1032" width="18.3515605360051" height="206.4" fill-rule="evenodd" fill="#969696" stroke="#FFF"></rect><rect id="path-54" x="53.409622424049715" y="1032" width="24.924416834515984" height="206.4" fill-rule="evenodd" fill="#bdbdbd" stroke="#FFF"></rect><rect id="path-55" x="110.255286060739" y="1032" width="2.915512718034094" height="206.4" fill-rule="evenodd" fill="#dadaeb" stroke="#FFF"></rect><rect id="path-56" x="96.68559979457079" y="1032" width="13.569686266168212" height="206.4" fill-rule="evenodd" fill="#d9d9d9" stroke="#FFF"></rect><rect id="path-57" x="0" y="1032" width="53.409622424049715" height="206.4" fill-rule="evenodd" fill="#636363" stroke="#FFF"></rect><rect id="path-58" x="113.1707987787731" y="825.6" width="16.289781985216845" height="206.4" fill-rule="evenodd" fill="#c7e9c0" stroke="#FFF"></rect><rect id="path-59" x="531.8765228063626" y="619.1999999999999" width="1.4436184682921807" height="206.4" fill-rule="evenodd" fill="#fdd0a2" stroke="#FFF"></rect><rect id="path-60" x="541.6605500023168" y="412.8" width="0.6683864352263497" height="206.4" fill-rule="evenodd" fill="#e6550d" stroke="#FFF"></rect><rect id="path-61" x="718.3576122828674" y="206.4" width="9.680207065321778" height="206.4" fill-rule="evenodd" fill="#31a354" stroke="#FFF"></rect><rect id="path-62" x="722.9495169491497" y="412.8" width="3.4590562404955363" height="206.4" fill-rule="evenodd" fill="#74c476" stroke="#FFF"></rect><rect id="path-63" x="722.9495169491497" y="619.1999999999999" width="2.7618505968457905" height="206.4" fill-rule="evenodd" fill="#d9d9d9" stroke="#FFF"></rect><rect id="path-64" x="722.9495169491497" y="825.6" width="2.7618505968457905" height="206.4" fill-rule="evenodd" fill="#9e9ac8" stroke="#FFF"></rect><rect id="path-65" x="726.4085731896453" y="412.8" width="0.8048060823613347" height="206.4" fill-rule="evenodd" fill="#a1d99b" stroke="#FFF"></rect><rect id="path-66" x="726.4085731896453" y="619.1999999999999" width="0.8048060823613347" height="206.4" fill-rule="evenodd" fill="#fd8d3c" stroke="#FFF"></rect><rect id="path-67" x="726.4085731896453" y="825.6" width="0.7223968197746841" height="206.4" fill-rule="evenodd" fill="#d9d9d9" stroke="#FFF"></rect><rect id="path-68" x="726.4085731896453" y="1032" width="0.7223968197746841" height="206.4" fill-rule="evenodd" fill="#9e9ac8" stroke="#FFF"></rect><rect id="path-69" x="718.3576122828674" y="412.8" width="4.591904666282333" height="206.4" fill-rule="evenodd" fill="#c7e9c0" stroke="#FFF"></rect><rect id="path-70" x="718.3576122828674" y="619.1999999999999" width="4.356614057116253" height="206.4" fill-rule="evenodd" fill="#636363" stroke="#FFF"></rect><rect id="path-71" x="720.17461240519" y="825.6" width="1.3378362254219678" height="206.4" fill-rule="evenodd" fill="#969696" stroke="#FFF"></rect><rect id="path-72" x="720.17461240519" y="1032" width="1.3378362254219678" height="206.4" fill-rule="evenodd" fill="#e6550d" stroke="#FFF"></rect><rect id="path-73" x="718.3576122828674" y="825.6" width="1.8170001223226409" height="206.4" fill-rule="evenodd" fill="#bdbdbd" stroke="#FFF"></rect><rect id="path-74" x="718.3576122828674" y="1032" width="1.2061381799125228" height="206.4" fill-rule="evenodd" fill="#e6550d" stroke="#FFF"></rect><rect id="path-75" x="719.5637504627799" y="1032" width="0.6108619424101176" height="206.4" fill-rule="evenodd" fill="#636363" stroke="#FFF"></rect><rect id="path-76" x="721.512448630612" y="825.6" width="0.9892356466837393" height="206.4" fill-rule="evenodd" fill="#d9d9d9" stroke="#FFF"></rect><rect id="path-77" x="721.512448630612" y="1032" width="0.9892356466837393" height="206.4" fill-rule="evenodd" fill="#9e9ac8" stroke="#FFF"></rect><rect id="path-78" x="727.2133792720066" y="412.8" width="0.6765729061694045" height="206.4" fill-rule="evenodd" fill="#31a354" stroke="#FFF"></rect><rect id="path-79" x="542.9831588320999" y="206.4" width="175.3744534507676" height="206.4" fill-rule="evenodd" fill="#756bb1" stroke="#FFF"></rect><rect id="path-80" x="627.8016200613483" y="412.8" width="83.91063289380338" height="206.4" fill-rule="evenodd" fill="#9e9ac8" stroke="#FFF"></rect><rect id="path-81" x="627.8016200613483" y="619.1999999999999" width="79.65971164087317" height="206.4" fill-rule="evenodd" fill="#969696" stroke="#FFF"></rect><rect id="path-82" x="627.8016200613483" y="825.6" width="20.03162537682954" height="206.4" fill-rule="evenodd" fill="#bdbdbd" stroke="#FFF"></rect><rect id="path-83" x="627.8016200613483" y="1032" width="19.655405375706618" height="206.4" fill-rule="evenodd" fill="#d9d9d9" stroke="#FFF"></rect><rect id="path-84" x="687.849200678892" y="825.6" width="8.652733922035745" height="206.4" fill-rule="evenodd" fill="#3182bd" stroke="#FFF"></rect><rect id="path-85" x="687.849200678892" y="1032" width="8.173230076068021" height="206.4" fill-rule="evenodd" fill="#3182bd" stroke="#FFF"></rect><rect id="path-86" x="706.0222698431768" y="825.6" width="0.9709254014092876" height="206.4" fill-rule="evenodd" fill="#fd8d3c" stroke="#FFF"></rect><rect id="path-87" x="706.0222698431768" y="1032" width="0.87150611506142" height="206.4" fill-rule="evenodd" fill="#d9d9d9" stroke="#FFF"></rect><rect id="path-88" x="704.9520547353901" y="825.6" width="1.0702151077867268" height="206.4" fill-rule="evenodd" fill="#6baed6" stroke="#FFF"></rect><rect id="path-89" x="704.9520547353901" y="1032" width="0.6313534725406186" height="206.4" fill-rule="evenodd" fill="#bcbddc" stroke="#FFF"></rect><rect id="path-90" x="696.5019346009277" y="825.6" width="8.45012013446245" height="206.4" fill-rule="evenodd" fill="#9ecae1" stroke="#FFF"></rect><rect id="path-91" x="696.5019346009277" y="1032" width="8.277908904106525" height="206.4" fill-rule="evenodd" fill="#9ecae1" stroke="#FFF"></rect><rect id="path-92" x="667.8578697865208" y="825.6" width="19.991330892371167" height="206.4" fill-rule="evenodd" fill="#c6dbef" stroke="#FFF"></rect><rect id="path-93" x="683.4847072156571" y="1032" width="4.311750562879029" height="206.4" fill-rule="evenodd" fill="#d9d9d9" stroke="#FFF"></rect><rect id="path-94" x="667.8578697865208" y="1032" width="15.626837429136245" height="206.4" fill-rule="evenodd" fill="#c6dbef" stroke="#FFF"></rect><rect id="path-95" x="647.8332454381779" y="825.6" width="20.024624348343" height="206.4" fill-rule="evenodd" fill="#e6550d" stroke="#FFF"></rect><rect id="path-96" x="647.8332454381779" y="1032" width="19.92391937282679" height="206.4" fill-rule="evenodd" fill="#e6550d" stroke="#FFF"></rect><rect id="path-97" x="707.4613317022215" y="619.1999999999999" width="2.83184315339106" height="206.4" fill-rule="evenodd" fill="#fd8d3c" stroke="#FFF"></rect><rect id="path-98" x="707.4613317022215" y="825.6" width="2.83184315339106" height="206.4" fill-rule="evenodd" fill="#3182bd" stroke="#FFF"></rect><rect id="path-99" x="707.4613317022215" y="1032" width="2.8237830280725644" height="206.4" fill-rule="evenodd" fill="#6baed6" stroke="#FFF"></rect><rect id="path-100" x="710.2931748556126" y="619.1999999999999" width="1.1830179334630913" height="206.4" fill-rule="evenodd" fill="#fdae6b" stroke="#FFF"></rect><rect id="path-101" x="710.2931748556126" y="825.6" width="1.1724441263863756" height="206.4" fill-rule="evenodd" fill="#fdd0a2" stroke="#FFF"></rect><rect id="path-102" x="711.7122529551517" y="412.8" width="6.5135359179309456" height="206.4" fill-rule="evenodd" fill="#bcbddc" stroke="#FFF"></rect><rect id="path-103" x="711.7122529551517" y="619.1999999999999" width="6.155512409477995" height="206.4" fill-rule="evenodd" fill="#fdd0a2" stroke="#FFF"></rect><rect id="path-104" x="711.7122529551517" y="825.6" width="2.5576522621779034" height="206.4" fill-rule="evenodd" fill="#31a354" stroke="#FFF"></rect><rect id="path-105" x="711.7122529551517" y="1032" width="1.5589889481246608" height="206.4" fill-rule="evenodd" fill="#74c476" stroke="#FFF"></rect><rect id="path-106" x="713.2712419032764" y="1032" width="0.8403484719910401" height="206.4" fill-rule="evenodd" fill="#31a354" stroke="#FFF"></rect><rect id="path-107" x="714.2699052173297" y="825.6" width="1.3180895040352956" height="206.4" fill-rule="evenodd" fill="#a1d99b" stroke="#FFF"></rect><rect id="path-108" x="715.5879947213649" y="825.6" width="1.2035189048662618" height="206.4" fill-rule="evenodd" fill="#c7e9c0" stroke="#FFF"></rect><rect id="path-109" x="715.5879947213649" y="1032" width="0.6792155888225612" height="206.4" fill-rule="evenodd" fill="#c7e9c0" stroke="#FFF"></rect><rect id="path-110" x="716.7915136262312" y="825.6" width="1.0432535845711115" height="206.4" fill-rule="evenodd" fill="#fdd0a2" stroke="#FFF"></rect><rect id="path-111" x="542.9831588320999" y="412.8" width="84.8184612292485" height="206.4" fill-rule="evenodd" fill="#dadaeb" stroke="#FFF"></rect><rect id="path-112" x="542.9831588320999" y="619.1999999999999" width="67.80502366033205" height="206.4" fill-rule="evenodd" fill="#969696" stroke="#FFF"></rect><rect id="path-113" x="542.9831588320999" y="825.6" width="17.045847637646713" height="206.4" fill-rule="evenodd" fill="#bdbdbd" stroke="#FFF"></rect><rect id="path-114" x="542.9831588320999" y="1032" width="16.72570442925812" height="206.4" fill-rule="evenodd" fill="#d9d9d9" stroke="#FFF"></rect><rect id="path-115" x="594.0935311143329" y="825.6" width="7.3698411802671995" height="206.4" fill-rule="evenodd" fill="#3182bd" stroke="#FFF"></rect><rect id="path-116" x="594.0935311143329" y="1032" width="6.882316992417312" height="206.4" fill-rule="evenodd" fill="#3182bd" stroke="#FFF"></rect><rect id="path-117" x="609.5636173995365" y="825.6" width="0.826205869399258" height="206.4" fill-rule="evenodd" fill="#fd8d3c" stroke="#FFF"></rect><rect id="path-118" x="609.5636173995365" y="1032" width="0.7416053452056719" height="206.4" fill-rule="evenodd" fill="#d9d9d9" stroke="#FFF"></rect><rect id="path-119" x="608.6529212716057" y="825.6" width="0.9106961279308592" height="206.4" fill-rule="evenodd" fill="#6baed6" stroke="#FFF"></rect><rect id="path-120" x="608.6529212716057" y="1032" width="0.5372482210492435" height="206.4" fill-rule="evenodd" fill="#bcbddc" stroke="#FFF"></rect><rect id="path-121" x="601.4633722946" y="825.6" width="7.189548977005673" height="206.4" fill-rule="evenodd" fill="#9ecae1" stroke="#FFF"></rect><rect id="path-122" x="601.4633722946" y="1032" width="7.017337746649748" height="206.4" fill-rule="evenodd" fill="#9ecae1" stroke="#FFF"></rect><rect id="path-123" x="577.0655628966399" y="825.6" width="17.027968217693026" height="206.4" fill-rule="evenodd" fill="#c6dbef" stroke="#FFF"></rect><rect id="path-124" x="589.709754374183" y="1032" width="4.311750562879029" height="206.4" fill-rule="evenodd" fill="#d9d9d9" stroke="#FFF"></rect><rect id="path-125" x="577.0655628966399" y="1032" width="12.644191477543103" height="206.4" fill-rule="evenodd" fill="#c6dbef" stroke="#FFF"></rect><rect id="path-126" x="560.0290064697466" y="825.6" width="17.036556426893252" height="206.4" fill-rule="evenodd" fill="#e6550d" stroke="#FFF"></rect><rect id="path-127" x="560.0290064697466" y="1032" width="16.935851451377044" height="206.4" fill-rule="evenodd" fill="#e6550d" stroke="#FFF"></rect><rect id="path-128" x="610.7881824924319" y="619.1999999999999" width="14.645004229240362" height="206.4" fill-rule="evenodd" fill="#756bb1" stroke="#FFF"></rect><rect id="path-129" x="610.7881824924319" y="825.6" width="14.403907891449249" height="206.4" fill-rule="evenodd" fill="#fdd0a2" stroke="#FFF"></rect><rect id="path-130" x="614.4454297363616" y="1032" width="3.6353656318210303" height="206.4" fill-rule="evenodd" fill="#3182bd" stroke="#FFF"></rect><rect id="path-131" x="618.0807953681826" y="1032" width="3.584541743400701" height="206.4" fill-rule="evenodd" fill="#fdd0a2" stroke="#FFF"></rect><rect id="path-132" x="624.2852316736919" y="1032" width="0.6265840196450492" height="206.4" fill-rule="evenodd" fill="#a1d99b" stroke="#FFF"></rect><rect id="path-133" x="621.6653371115833" y="1032" width="2.6198945621085916" height="206.4" fill-rule="evenodd" fill="#74c476" stroke="#FFF"></rect><rect id="path-134" x="610.7881824924319" y="1032" width="3.6572472439296893" height="206.4" fill-rule="evenodd" fill="#c7e9c0" stroke="#FFF"></rect><rect id="path-135" x="625.4331867216723" y="619.1999999999999" width="2.1801691196994644" height="206.4" fill-rule="evenodd" fill="#fd8d3c" stroke="#FFF"></rect><rect id="path-136" x="625.4331867216723" y="825.6" width="2.1801691196994644" height="206.4" fill-rule="evenodd" fill="#3182bd" stroke="#FFF"></rect><rect id="path-137" x="625.4331867216723" y="1032" width="2.1739638196992686" height="206.4" fill-rule="evenodd" fill="#6baed6" stroke="#FFF"></rect><text x="364.125" y="103.2" width="728.25" height="206.4" font-family="sans-serif" font-size="15px" fill="black" text-anchor="middle" pointer-events="none"><tspan text-anchor="middle" x="364.125">fluid_multirouter.py:85(_process_flpa_list)</tspan><tspan text-anchor="middle" x="364.125" dy="1.2em">237 s</tspan></text><text x="271.49157941604994" y="309.59999999999997" width="542.9831588320999" height="206.4" font-family="sans-serif" font-size="15px" fill="black" text-anchor="middle" pointer-events="none"><tspan text-anchor="middle" x="271.49157941604994">lpa_star.py:179(computeShortestPath)</tspan><tspan text-anchor="middle" x="271.49157941604994" dy="1.2em">177 s</tspan></text><text x="267.7192480000274" y="516" width="535.4384960000548" height="206.4" font-family="sans-serif" font-size="15px" fill="black" text-anchor="middle" pointer-events="none"><tspan text-anchor="middle" x="267.7192480000274">lpa_star.py:168(_updateVertex)</tspan><tspan text-anchor="middle" x="267.7192480000274" dy="1.2em">179 s</tspan></text></g></svg>