<svg width="938.25" height="1092"><g id="container" transform="translate(90,60)"><rect id="path-0" x="0" y="0" width="848.25" height="206.4" fill-rule="evenodd" fill="#c6dbef" stroke="#FFF" style="fill: rgb(198, 219, 239);"></rect><rect id="path-1" x="549.155726645107" y="206.4" width="289.8905093389049" height="206.4" fill-rule="evenodd" fill="#e6550d" stroke="#FFF" style="fill: rgb(230, 85, 13);"></rect><rect id="path-2" x="838.1057951406602" y="412.8" width="0.6167223797480257" height="206.4" fill-rule="evenodd" fill="#c7e9c0" stroke="#FFF"></rect><rect id="path-3" x="549.155726645107" y="412.8" width="281.3063798415765" height="206.4" fill-rule="evenodd" fill="#fd8d3c" stroke="#FFF"></rect><rect id="path-4" x="549.155726645107" y="619.1999999999999" width="88.91472745966442" height="206.4" fill-rule="evenodd" fill="#74c476" stroke="#FFF"></rect><rect id="path-5" x="635.3067844234248" y="825.6" width="2.7636696813466646" height="206.4" fill-rule="evenodd" fill="#636363" stroke="#FFF"></rect><rect id="path-6" x="632.2394210267084" y="825.6" width="3.0673633967163774" height="206.4" fill-rule="evenodd" fill="#969696" stroke="#FFF"></rect><rect id="path-7" x="603.8074850383721" y="825.6" width="28.431935988336356" height="206.4" fill-rule="evenodd" fill="#bdbdbd" stroke="#FFF"></rect><rect id="path-8" x="603.8074850383721" y="1032" width="16.50068812687617" height="206.4" fill-rule="evenodd" fill="#d9d9d9" stroke="#FFF"></rect><rect id="path-9" x="620.3081731652483" y="1032" width="11.931247861460186" height="206.4" fill-rule="evenodd" fill="#bdbdbd" stroke="#FFF"></rect><rect id="path-10" x="549.155726645107" y="825.6" width="54.65175839326501" height="206.4" fill-rule="evenodd" fill="#74c476" stroke="#FFF"></rect><rect id="path-11" x="828.2279739116169" y="619.1999999999999" width="0.9058991064409555" height="206.4" fill-rule="evenodd" fill="#3182bd" stroke="#FFF"></rect><rect id="path-12" x="638.0704541047714" y="619.1999999999999" width="85.36355985981878" height="206.4" fill-rule="evenodd" fill="#fdae6b" stroke="#FFF"></rect><rect id="path-13" x="694.5223632816858" y="825.6" width="17.57655813443352" height="206.4" fill-rule="evenodd" fill="#6baed6" stroke="#FFF"></rect><rect id="path-14" x="708.3888167310283" y="1032" width="3.7101046850909354" height="206.4" fill-rule="evenodd" fill="#9ecae1" stroke="#FFF"></rect><rect id="path-15" x="694.5223632816858" y="1032" width="13.86645344934258" height="206.4" fill-rule="evenodd" fill="#6baed6" stroke="#FFF"></rect><rect id="path-16" x="712.0989214161193" y="825.6" width="11.335092548470861" height="206.4" fill-rule="evenodd" fill="#bdbdbd" stroke="#FFF"></rect><rect id="path-17" x="712.0989214161193" y="1032" width="11.335092548470861" height="206.4" fill-rule="evenodd" fill="#d9d9d9" stroke="#FFF"></rect><rect id="path-18" x="674.9643166491205" y="825.6" width="19.55804663256531" height="206.4" fill-rule="evenodd" fill="#c6dbef" stroke="#FFF"></rect><rect id="path-19" x="674.9643166491205" y="1032" width="10.07531812663877" height="206.4" fill-rule="evenodd" fill="#9ecae1" stroke="#FFF"></rect><rect id="path-20" x="685.0396347757593" y="1032" width="5.4675569584924455" height="206.4" fill-rule="evenodd" fill="#e6550d" stroke="#FFF"></rect><rect id="path-21" x="690.5071917342517" y="1032" width="4.015171547434094" height="206.4" fill-rule="evenodd" fill="#c6dbef" stroke="#FFF"></rect><rect id="path-22" x="638.0704541047714" y="825.6" width="36.89386254434909" height="206.4" fill-rule="evenodd" fill="#fdae6b" stroke="#FFF"></rect><rect id="path-23" x="824.8890454454736" y="619.1999999999999" width="1.9343375494686623" height="206.4" fill-rule="evenodd" fill="#fd8d3c" stroke="#FFF"></rect><rect id="path-24" x="825.9369012837908" y="825.6" width="0.8864817111514994" height="206.4" fill-rule="evenodd" fill="#6baed6" stroke="#FFF"></rect><rect id="path-25" x="825.9369012837908" y="1032" width="0.8864817111514994" height="206.4" fill-rule="evenodd" fill="#9ecae1" stroke="#FFF"></rect><rect id="path-26" x="824.8890454454736" y="825.6" width="1.047855838317163" height="206.4" fill-rule="evenodd" fill="#fdae6b" stroke="#FFF"></rect><rect id="path-27" x="824.8890454454736" y="1032" width="1.023116359408231" height="206.4" fill-rule="evenodd" fill="#bdbdbd" stroke="#FFF"></rect><rect id="path-28" x="723.4340139645902" y="619.1999999999999" width="37.686703388946384" height="206.4" fill-rule="evenodd" fill="#c7e9c0" stroke="#FFF"></rect><rect id="path-29" x="758.9976974369728" y="825.6" width="2.1230199165638135" height="206.4" fill-rule="evenodd" fill="#969696" stroke="#FFF"></rect><rect id="path-30" x="723.4340139645902" y="825.6" width="16.91959897548921" height="206.4" fill-rule="evenodd" fill="#fdd0a2" stroke="#FFF"></rect><rect id="path-31" x="736.9270724588674" y="1032" width="3.4265404812120686" height="206.4" fill-rule="evenodd" fill="#31a354" stroke="#FFF"></rect><rect id="path-32" x="733.0290374572036" y="1032" width="3.8980350016638443" height="206.4" fill-rule="evenodd" fill="#74c476" stroke="#FFF"></rect><rect id="path-33" x="723.4340139645902" y="1032" width="9.595023492613299" height="206.4" fill-rule="evenodd" fill="#fdd0a2" stroke="#FFF"></rect><rect id="path-34" x="756.6336322326234" y="825.6" width="2.364065204349374" height="206.4" fill-rule="evenodd" fill="#a1d99b" stroke="#FFF"></rect><rect id="path-35" x="740.3536129400794" y="825.6" width="16.280019292543983" height="206.4" fill-rule="evenodd" fill="#c7e9c0" stroke="#FFF"></rect><rect id="path-36" x="819.1930297561947" y="619.1999999999999" width="5.696015689278898" height="206.4" fill-rule="evenodd" fill="#c7e9c0" stroke="#FFF"></rect><rect id="path-37" x="819.1930297561947" y="825.6" width="2.047807381249873" height="206.4" fill-rule="evenodd" fill="#fd8d3c" stroke="#FFF"></rect><rect id="path-38" x="820.302353679923" y="1032" width="0.9384834575215222" height="206.4" fill-rule="evenodd" fill="#6baed6" stroke="#FFF"></rect><rect id="path-39" x="819.1930297561947" y="1032" width="1.109323923728351" height="206.4" fill-rule="evenodd" fill="#fdae6b" stroke="#FFF"></rect><rect id="path-40" x="822.921894547348" y="825.6" width="1.164742923252902" height="206.4" fill-rule="evenodd" fill="#a1d99b" stroke="#FFF"></rect><rect id="path-41" x="822.921894547348" y="1032" width="1.164742923252902" height="206.4" fill-rule="evenodd" fill="#fdae6b" stroke="#FFF"></rect><rect id="path-42" x="821.2408371374446" y="825.6" width="1.6810574099033497" height="206.4" fill-rule="evenodd" fill="#756bb1" stroke="#FFF"></rect><rect id="path-43" x="821.2408371374446" y="1032" width="1.4426124958140971" height="206.4" fill-rule="evenodd" fill="#74c476" stroke="#FFF"></rect><rect id="path-44" x="824.0866374706009" y="825.6" width="0.5504972407360196" height="206.4" fill-rule="evenodd" fill="#c7e9c0" stroke="#FFF"></rect><rect id="path-45" x="761.1207173535366" y="619.1999999999999" width="22.05054036515322" height="206.4" fill-rule="evenodd" fill="#a1d99b" stroke="#FFF"></rect><rect id="path-46" x="761.1207173535366" y="825.6" width="14.289910274993062" height="206.4" fill-rule="evenodd" fill="#fdae6b" stroke="#FFF"></rect><rect id="path-47" x="769.1066333444193" y="1032" width="6.15515937005943" height="206.4" fill-rule="evenodd" fill="#bdbdbd" stroke="#FFF"></rect><rect id="path-48" x="761.1207173535366" y="1032" width="7.985915990882627" height="206.4" fill-rule="evenodd" fill="#fdae6b" stroke="#FFF"></rect><rect id="path-49" x="775.4106276285297" y="825.6" width="7.760630090160161" height="206.4" fill-rule="evenodd" fill="#a1d99b" stroke="#FFF"></rect><rect id="path-50" x="829.1338730180579" y="619.1999999999999" width="0.56961279356255" height="206.4" fill-rule="evenodd" fill="#31a354" stroke="#FFF"></rect><rect id="path-51" x="826.8233829949422" y="619.1999999999999" width="1.4045909166746946" height="206.4" fill-rule="evenodd" fill="#9e9ac8" stroke="#FFF"></rect><rect id="path-52" x="826.8233829949422" y="825.6" width="0.810732912245846" height="206.4" fill-rule="evenodd" fill="#bcbddc" stroke="#FFF"></rect><rect id="path-53" x="826.8233829949422" y="1032" width="0.5905093217551857" height="206.4" fill-rule="evenodd" fill="#bcbddc" stroke="#FFF"></rect><rect id="path-54" x="827.6341159071881" y="825.6" width="0.5938580044288487" height="206.4" fill-rule="evenodd" fill="#9e9ac8" stroke="#FFF"></rect><rect id="path-55" x="809.6361176397982" y="619.1999999999999" width="9.556912116396617" height="206.4" fill-rule="evenodd" fill="#dadaeb" stroke="#FFF"></rect><rect id="path-56" x="809.6361176397982" y="825.6" width="9.556912116396617" height="206.4" fill-rule="evenodd" fill="#636363" stroke="#FFF"></rect><rect id="path-57" x="809.6361176397982" y="1032" width="8.5762224721792" height="206.4" fill-rule="evenodd" fill="#969696" stroke="#FFF"></rect><rect id="path-58" x="818.2123401119774" y="1032" width="0.6811257239339896" height="206.4" fill-rule="evenodd" fill="#bdbdbd" stroke="#FFF"></rect><rect id="path-59" x="798.4030981773834" y="619.1999999999999" width="11.233019462414765" height="206.4" fill-rule="evenodd" fill="#d9d9d9" stroke="#FFF"></rect><rect id="path-60" x="798.4030981773834" y="825.6" width="10.791229066819092" height="206.4" fill-rule="evenodd" fill="#3182bd" stroke="#FFF"></rect><rect id="path-61" x="798.4030981773834" y="1032" width="9.22329726656737" height="206.4" fill-rule="evenodd" fill="#6baed6" stroke="#FFF"></rect><rect id="path-62" x="807.6263954439507" y="1032" width="0.9769024037572762" height="206.4" fill-rule="evenodd" fill="#3182bd" stroke="#FFF"></rect><rect id="path-63" x="783.1712577186898" y="619.1999999999999" width="15.231840458693616" height="206.4" fill-rule="evenodd" fill="#fd8d3c" stroke="#FFF"></rect><rect id="path-64" x="830.4621064866835" y="412.8" width="4.375580149450131" height="206.4" fill-rule="evenodd" fill="#fdae6b" stroke="#FFF"></rect><rect id="path-65" x="832.2276713464223" y="619.1999999999999" width="1.5867335274114254" height="206.4" fill-rule="evenodd" fill="#6baed6" stroke="#FFF"></rect><rect id="path-66" x="832.2276713464223" y="825.6" width="1.5867335274114254" height="206.4" fill-rule="evenodd" fill="#9ecae1" stroke="#FFF"></rect><rect id="path-67" x="833.8144048738337" y="619.1999999999999" width="1.0232817622999204" height="206.4" fill-rule="evenodd" fill="#bdbdbd" stroke="#FFF"></rect><rect id="path-68" x="833.8144048738337" y="825.6" width="1.0232817622999204" height="206.4" fill-rule="evenodd" fill="#d9d9d9" stroke="#FFF"></rect><rect id="path-69" x="830.4621064866835" y="619.1999999999999" width="1.7655648597387847" height="206.4" fill-rule="evenodd" fill="#c6dbef" stroke="#FFF"></rect><rect id="path-70" x="830.4621064866835" y="825.6" width="1.144519119015212" height="206.4" fill-rule="evenodd" fill="#9ecae1" stroke="#FFF"></rect><rect id="path-71" x="831.6066256056987" y="825.6" width="0.6210457407235728" height="206.4" fill-rule="evenodd" fill="#e6550d" stroke="#FFF"></rect><rect id="path-72" x="831.6066256056987" y="1032" width="0.6146626651467355" height="206.4" fill-rule="evenodd" fill="#e6550d" stroke="#FFF"></rect><rect id="path-73" x="834.8376866361336" y="412.8" width="1.7549304721478254" height="206.4" fill-rule="evenodd" fill="#fdd0a2" stroke="#FFF"></rect><rect id="path-74" x="834.8376866361336" y="619.1999999999999" width="1.7343557168154522" height="206.4" fill-rule="evenodd" fill="#c7e9c0" stroke="#FFF"></rect><rect id="path-75" x="834.8376866361336" y="825.6" width="1.370814978967071" height="206.4" fill-rule="evenodd" fill="#fdd0a2" stroke="#FFF"></rect><rect id="path-76" x="835.5672148908852" y="1032" width="0.6412867242154837" height="206.4" fill-rule="evenodd" fill="#31a354" stroke="#FFF"></rect><rect id="path-77" x="834.8376866361336" y="1032" width="0.7295282547515872" height="206.4" fill-rule="evenodd" fill="#74c476" stroke="#FFF"></rect><rect id="path-78" x="836.5926171082815" y="412.8" width="1.513178032378721" height="206.4" fill-rule="evenodd" fill="#e6550d" stroke="#FFF" style="fill: rgb(230, 85, 13);"></rect><rect id="path-79" x="839.0462359840119" y="206.4" width="9.023821897748448" height="206.4" fill-rule="evenodd" fill="#31a354" stroke="#FFF"></rect><rect id="path-80" x="839.0462359840119" y="412.8" width="3.159106755121855" height="206.4" fill-rule="evenodd" fill="#74c476" stroke="#FFF"></rect><rect id="path-81" x="839.0462359840119" y="619.1999999999999" width="2.6214751228325013" height="206.4" fill-rule="evenodd" fill="#bdbdbd" stroke="#FFF"></rect><rect id="path-82" x="839.0462359840119" y="825.6" width="2.6214751228325013" height="206.4" fill-rule="evenodd" fill="#d9d9d9" stroke="#FFF"></rect><rect id="path-83" x="842.2053427391338" y="412.8" width="2.931994980205683" height="206.4" fill-rule="evenodd" fill="#fdae6b" stroke="#FFF"></rect><rect id="path-84" x="843.3884053836349" y="619.1999999999999" width="1.063246481802562" height="206.4" fill-rule="evenodd" fill="#6baed6" stroke="#FFF"></rect><rect id="path-85" x="843.3884053836349" y="825.6" width="1.063246481802562" height="206.4" fill-rule="evenodd" fill="#9ecae1" stroke="#FFF"></rect><rect id="path-86" x="844.4516518654375" y="619.1999999999999" width="0.6856858539020506" height="206.4" fill-rule="evenodd" fill="#bdbdbd" stroke="#FFF"></rect><rect id="path-87" x="844.4516518654375" y="825.6" width="0.6856858539020506" height="206.4" fill-rule="evenodd" fill="#d9d9d9" stroke="#FFF"></rect><rect id="path-88" x="842.2053427391338" y="619.1999999999999" width="1.1830626445010703" height="206.4" fill-rule="evenodd" fill="#c6dbef" stroke="#FFF"></rect><rect id="path-89" x="842.2053427391338" y="825.6" width="0.7669251992386743" height="206.4" fill-rule="evenodd" fill="#9ecae1" stroke="#FFF"></rect><rect id="path-90" x="847.2315664479996" y="412.8" width="0.7075074303646242" height="206.4" fill-rule="evenodd" fill="#a1d99b" stroke="#FFF"></rect><rect id="path-91" x="847.2315664479996" y="619.1999999999999" width="0.7075074303646242" height="206.4" fill-rule="evenodd" fill="#fdae6b" stroke="#FFF"></rect><rect id="path-92" x="847.2315664479996" y="825.6" width="0.6908034482791416" height="206.4" fill-rule="evenodd" fill="#bdbdbd" stroke="#FFF"></rect><rect id="path-93" x="847.2315664479996" y="1032" width="0.6908034482791416" height="206.4" fill-rule="evenodd" fill="#d9d9d9" stroke="#FFF"></rect><rect id="path-94" x="845.1373377193395" y="412.8" width="1.140209613430322" height="206.4" fill-rule="evenodd" fill="#c7e9c0" stroke="#FFF"></rect><rect id="path-95" x="845.1373377193395" y="619.1999999999999" width="0.9012086748400616" height="206.4" fill-rule="evenodd" fill="#fdd0a2" stroke="#FFF"></rect><rect id="path-96" x="846.2775473327698" y="412.8" width="0.9540191152297617" height="206.4" fill-rule="evenodd" fill="#31a354" stroke="#FFF"></rect><rect id="path-97" x="0" y="206.4" width="549.155726645107" height="206.4" fill-rule="evenodd" fill="#756bb1" stroke="#FFF"></rect><rect id="path-98" x="285.0852303341075" y="412.8" width="257.2400591782301" height="206.4" fill-rule="evenodd" fill="#9e9ac8" stroke="#FFF"></rect><rect id="path-99" x="285.0852303341075" y="619.1999999999999" width="245.86537567399768" height="206.4" fill-rule="evenodd" fill="#9ecae1" stroke="#FFF"></rect><rect id="path-100" x="489.36960011558153" y="825.6" width="34.515788341695284" height="206.4" fill-rule="evenodd" fill="#c6dbef" stroke="#FFF"></rect><rect id="path-101" x="489.36960011558153" y="1032" width="34.515788341695284" height="206.4" fill-rule="evenodd" fill="#c6dbef" stroke="#FFF"></rect><rect id="path-102" x="341.6975365365001" y="825.6" width="56.581444521554026" height="206.4" fill-rule="evenodd" fill="#e6550d" stroke="#FFF"></rect><rect id="path-103" x="341.6975365365001" y="1032" width="56.52327472319934" height="206.4" fill-rule="evenodd" fill="#e6550d" stroke="#FFF"></rect><rect id="path-104" x="526.9402190580923" y="825.6" width="2.5658414369788245" height="206.4" fill-rule="evenodd" fill="#fdae6b" stroke="#FFF"></rect><rect id="path-105" x="526.9402190580923" y="1032" width="2.5052628938313775" height="206.4" fill-rule="evenodd" fill="#bdbdbd" stroke="#FFF"></rect><rect id="path-106" x="523.8853884572768" y="825.6" width="3.054830600815565" height="206.4" fill-rule="evenodd" fill="#fd8d3c" stroke="#FFF"></rect><rect id="path-107" x="523.8853884572768" y="1032" width="2.0029045589555214" height="206.4" fill-rule="evenodd" fill="#a1d99b" stroke="#FFF"></rect><rect id="path-108" x="525.8882930162323" y="1032" width="1.0519260418600431" height="206.4" fill-rule="evenodd" fill="#fdae6b" stroke="#FFF"></rect><rect id="path-109" x="529.5060604950712" y="825.6" width="1.4445455130339708" height="206.4" fill-rule="evenodd" fill="#fdae6b" stroke="#FFF"></rect><rect id="path-110" x="285.0852303341075" y="825.6" width="56.61230620239255" height="206.4" fill-rule="evenodd" fill="#fdd0a2" stroke="#FFF"></rect><rect id="path-111" x="339.8001221410467" y="1032" width="1.135109443580563" height="206.4" fill-rule="evenodd" fill="#31a354" stroke="#FFF"></rect><rect id="path-112" x="340.9352315846273" y="1032" width="0.762304951872768" height="206.4" fill-rule="evenodd" fill="#74c476" stroke="#FFF"></rect><rect id="path-113" x="285.0852303341075" y="1032" width="54.71489180693922" height="206.4" fill-rule="evenodd" fill="#a1d99b" stroke="#FFF"></rect><rect id="path-114" x="398.2789810580541" y="825.6" width="56.53459605289269" height="206.4" fill-rule="evenodd" fill="#c7e9c0" stroke="#FFF"></rect><rect id="path-115" x="439.38771884214947" y="1032" width="15.283836707985163" height="206.4" fill-rule="evenodd" fill="#bdbdbd" stroke="#FFF"></rect><rect id="path-116" x="398.2789810580541" y="1032" width="41.10873778409533" height="206.4" fill-rule="evenodd" fill="#c7e9c0" stroke="#FFF"></rect><rect id="path-117" x="454.81357711094677" y="825.6" width="34.556023004634795" height="206.4" fill-rule="evenodd" fill="#756bb1" stroke="#FFF"></rect><rect id="path-118" x="454.81357711094677" y="1032" width="34.556023004634795" height="206.4" fill-rule="evenodd" fill="#756bb1" stroke="#FFF"></rect><rect id="path-119" x="530.9506060081052" y="619.1999999999999" width="10.064645168391404" height="206.4" fill-rule="evenodd" fill="#9e9ac8" stroke="#FFF"></rect><rect id="path-120" x="530.9506060081052" y="825.6" width="9.765042380811943" height="206.4" fill-rule="evenodd" fill="#fd8d3c" stroke="#FFF"></rect><rect id="path-121" x="530.9506060081052" y="1032" width="3.263027347726802" height="206.4" fill-rule="evenodd" fill="#74c476" stroke="#FFF"></rect><rect id="path-122" x="534.213633355832" y="1032" width="3.134326742059388" height="206.4" fill-rule="evenodd" fill="#fdae6b" stroke="#FFF"></rect><rect id="path-123" x="537.3479600978915" y="1032" width="1.382595333441929" height="206.4" fill-rule="evenodd" fill="#c7e9c0" stroke="#FFF"></rect><rect id="path-124" x="538.7305554313334" y="1032" width="0.8089583717124922" height="206.4" fill-rule="evenodd" fill="#a1d99b" stroke="#FFF"></rect><rect id="path-125" x="541.0152511764966" y="619.1999999999999" width="1.310038335841015" height="206.4" fill-rule="evenodd" fill="#9e9ac8" stroke="#FFF"></rect><rect id="path-126" x="0" y="412.8" width="285.0852303341075" height="206.4" fill-rule="evenodd" fill="#bcbddc" stroke="#FFF"></rect><rect id="path-127" x="0" y="619.1999999999999" width="282.64068413430977" height="206.4" fill-rule="evenodd" fill="#9ecae1" stroke="#FFF"></rect><rect id="path-128" x="234.83402729476143" y="825.6" width="39.68396368334535" height="206.4" fill-rule="evenodd" fill="#c6dbef" stroke="#FFF"></rect><rect id="path-129" x="234.83402729476143" y="1032" width="39.68396368334535" height="206.4" fill-rule="evenodd" fill="#c6dbef" stroke="#FFF"></rect><rect id="path-130" x="130.09034785620483" y="825.6" width="64.99853420440675" height="206.4" fill-rule="evenodd" fill="#e6550d" stroke="#FFF"></rect><rect id="path-131" x="130.09034785620483" y="1032" width="64.99853420440675" height="206.4" fill-rule="evenodd" fill="#e6550d" stroke="#FFF"></rect><rect id="path-132" x="278.03004866579886" y="825.6" width="2.9498798204177534" height="206.4" fill-rule="evenodd" fill="#fdae6b" stroke="#FFF"></rect><rect id="path-133" x="278.03004866579886" y="1032" width="2.880234276696481" height="206.4" fill-rule="evenodd" fill="#bdbdbd" stroke="#FFF"></rect><rect id="path-134" x="274.51799097810675" y="825.6" width="3.5120576876921192" height="206.4" fill-rule="evenodd" fill="#fd8d3c" stroke="#FFF"></rect><rect id="path-135" x="274.51799097810675" y="1032" width="2.302686228203732" height="206.4" fill-rule="evenodd" fill="#a1d99b" stroke="#FFF"></rect><rect id="path-136" x="276.8206772063105" y="1032" width="1.2093714594883873" height="206.4" fill-rule="evenodd" fill="#fdae6b" stroke="#FFF"></rect><rect id="path-137" x="280.97992848621664" y="825.6" width="1.660755648093109" height="206.4" fill-rule="evenodd" fill="#fdae6b" stroke="#FFF"></rect><rect id="path-138" x="0" y="825.6" width="65.0856663420261" height="206.4" fill-rule="evenodd" fill="#fdd0a2" stroke="#FFF"></rect><rect id="path-139" x="62.90425935582185" y="1032" width="1.305005209334594" height="206.4" fill-rule="evenodd" fill="#31a354" stroke="#FFF"></rect><rect id="path-140" x="64.20926456515645" y="1032" width="0.8764017768696447" height="206.4" fill-rule="evenodd" fill="#74c476" stroke="#FFF"></rect><rect id="path-141" x="0" y="1032" width="62.90425935582185" height="206.4" fill-rule="evenodd" fill="#a1d99b" stroke="#FFF"></rect><rect id="path-142" x="65.0856663420261" y="825.6" width="65.00468151417873" height="206.4" fill-rule="evenodd" fill="#c7e9c0" stroke="#FFF"></rect><rect id="path-143" x="114.66448958740747" y="1032" width="15.283836707985163" height="206.4" fill-rule="evenodd" fill="#bdbdbd" stroke="#FFF"></rect><rect id="path-144" x="65.0856663420261" y="1032" width="49.57882324538138" height="206.4" fill-rule="evenodd" fill="#c7e9c0" stroke="#FFF"></rect><rect id="path-145" x="195.08888206061158" y="825.6" width="39.74514523414983" height="206.4" fill-rule="evenodd" fill="#756bb1" stroke="#FFF"></rect><rect id="path-146" x="195.08888206061158" y="1032" width="39.74514523414983" height="206.4" fill-rule="evenodd" fill="#756bb1" stroke="#FFF"></rect><rect id="path-147" x="284.06255350527164" y="619.1999999999999" width="1.022676828835883" height="206.4" fill-rule="evenodd" fill="#bcbddc" stroke="#FFF"></rect><rect id="path-148" x="284.06255350527164" y="825.6" width="1.0065395457392246" height="206.4" fill-rule="evenodd" fill="#fd8d3c" stroke="#FFF"></rect><rect id="path-149" x="282.64068413430977" y="619.1999999999999" width="1.4218693709618604" height="206.4" fill-rule="evenodd" fill="#bcbddc" stroke="#FFF"></rect><rect id="path-150" x="542.3252895123376" y="412.8" width="6.706431110587012" height="206.4" fill-rule="evenodd" fill="#dadaeb" stroke="#FFF"></rect><rect id="path-151" x="542.3252895123376" y="619.1999999999999" width="6.379030966814696" height="206.4" fill-rule="evenodd" fill="#dadaeb" stroke="#FFF"></rect><rect id="path-152" x="542.3252895123376" y="825.6" width="2.69769502035817" height="206.4" fill-rule="evenodd" fill="#636363" stroke="#FFF"></rect><rect id="path-153" x="542.3252895123376" y="1032" width="1.5866507493202555" height="206.4" fill-rule="evenodd" fill="#969696" stroke="#FFF"></rect><rect id="path-154" x="543.9119402616578" y="1032" width="0.9445118496724683" height="206.4" fill-rule="evenodd" fill="#636363" stroke="#FFF"></rect><rect id="path-155" x="545.0229845326958" y="825.6" width="1.4102593571781583" height="206.4" fill-rule="evenodd" fill="#bdbdbd" stroke="#FFF"></rect><rect id="path-156" x="545.0229845326958" y="1032" width="0.6101935894045064" height="206.4" fill-rule="evenodd" fill="#bdbdbd" stroke="#FFF"></rect><rect id="path-157" x="546.4332438898739" y="825.6" width="1.1688922965323352" height="206.4" fill-rule="evenodd" fill="#d9d9d9" stroke="#FFF"></rect><rect id="path-158" x="546.4332438898739" y="1032" width="0.6583884290910487" height="206.4" fill-rule="evenodd" fill="#d9d9d9" stroke="#FFF"></rect><rect id="path-159" x="547.6021361864063" y="825.6" width="1.0599085770703671" height="206.4" fill-rule="evenodd" fill="#dadaeb" stroke="#FFF"></rect><text x="424.125" y="103.2" width="848.25" height="206.4" font-family="sans-serif" font-size="15px" fill="black" text-anchor="middle" pointer-events="none"><tspan text-anchor="middle" x="424.125">fluid_multirouter.py:87(_process_flpa_list)</tspan><tspan text-anchor="middle" x="424.125" dy="1.2em">227 s</tspan></text><text x="694.1009813145595" y="309.59999999999997" width="289.8905093389049" height="206.4" font-family="sans-serif" font-size="15px" fill="black" text-anchor="middle" pointer-events="none"><tspan text-anchor="middle" x="694.1009813145595">lpa_star.py:206(computeShortestPath)</tspan><tspan text-anchor="middle" x="694.1009813145595" dy="1.2em">77.6 s</tspan></text><text x="689.8089165658953" y="516" width="281.3063798415765" height="206.4" font-family="sans-serif" font-size="15px" fill="black" text-anchor="middle" pointer-events="none"><tspan text-anchor="middle" x="689.8089165658953">lpa_star.py:174(_updateVertex)</tspan><tspan text-anchor="middle" x="689.8089165658953" dy="1.2em">78.1 s</tspan></text><text x="274.5778633225535" y="309.59999999999997" width="549.155726645107" height="206.4" font-family="sans-serif" font-size="15px" fill="black" text-anchor="middle" pointer-events="none"><tspan text-anchor="middle" x="274.5778633225535">fluid_multirouter.py:55(_check_collision_free)</tspan><tspan text-anchor="middle" x="274.5778633225535" dy="1.2em">147 s</tspan></text><text x="408.0179181711064" y="722.4" width="245.86537567399768" height="206.4" font-family="sans-serif" font-size="15px" fill="black" text-anchor="middle" pointer-events="none"><tspan text-anchor="middle" x="408.0179181711064">copy.py:145(deepcopy)</tspan><tspan text-anchor="middle" x="408.0179181711064" dy="1.2em">141 s</tspan></text><text x="142.54261516705375" y="516" width="285.0852303341075" height="206.4" font-family="sans-serif" font-size="15px" fill="black" text-anchor="middle" pointer-events="none"><tspan text-anchor="middle" x="142.54261516705375">fluid_multirouter.py:123(_split_flpa_edge)</tspan><tspan text-anchor="middle" x="142.54261516705375" dy="1.2em">76.3 s</tspan></text><text x="141.32034206715488" y="722.4" width="282.64068413430977" height="206.4" font-family="sans-serif" font-size="15px" fill="black" text-anchor="middle" pointer-events="none"><tspan text-anchor="middle" x="141.32034206715488">copy.py:145(deepcopy)</tspan><tspan text-anchor="middle" x="141.32034206715488" dy="1.2em">141 s</tspan></text></g></svg>